<?xml version="1.0" encoding="utf-8" standalone="no"?>
<!DOCTYPE svg PUBLIC "-//W3C//DTD SVG 1.1//EN"
  "http://www.w3.org/Graphics/SVG/1.1/DTD/svg11.dtd">
<svg xmlns:xlink="http://www.w3.org/1999/xlink" width="720pt" height="432pt" viewBox="0 0 720 432" xmlns="http://www.w3.org/2000/svg" version="1.1">
 <metadata>
  <rdf:RDF xmlns:dc="http://purl.org/dc/elements/1.1/" xmlns:cc="http://creativecommons.org/ns#" xmlns:rdf="http://www.w3.org/1999/02/22-rdf-syntax-ns#">
   <cc:Work>
    <dc:type rdf:resource="http://purl.org/dc/dcmitype/StillImage"/>
    <dc:date>2025-09-03T23:24:19.588120</dc:date>
    <dc:format>image/svg+xml</dc:format>
    <dc:creator>
     <cc:Agent>
      <dc:title>Matplotlib v3.10.5, https://matplotlib.org/</dc:title>
     </cc:Agent>
    </dc:creator>
   </cc:Work>
  </rdf:RDF>
 </metadata>
 <defs>
  <style type="text/css">*{stroke-linejoin: round; stroke-linecap: butt}</style>
 </defs>
 <g id="figure_1">
  <g id="patch_1">
   <path d="M 0 432 
L 720 432 
L 720 0 
L 0 0 
z
" style="fill: #ffffff"/>
  </g>
  <g id="axes_1">
   <g id="patch_2">
    <path d="M 63.83 278.504705 
L 709.2 278.504705 
L 709.2 25.44 
L 63.83 25.44 
z
" style="fill: #ffffff"/>
   </g>
   <g id="patch_3">
    <path d="M 93.165 278.504705 
L 119.533539 278.504705 
L 119.533539 214.067352 
L 93.165 214.067352 
z
" clip-path="url(#p803215e909)" style="fill: #1f77b4; stroke: #000000; stroke-linejoin: miter"/>
   </g>
   <g id="patch_4">
    <path d="M 126.125674 278.504705 
L 152.494213 278.504705 
L 152.494213 235.491423 
L 126.125674 235.491423 
z
" clip-path="url(#p803215e909)" style="fill: #1f77b4; stroke: #000000; stroke-linejoin: miter"/>
   </g>
   <g id="patch_5">
    <path d="M 159.086348 278.504705 
L 185.454888 278.504705 
L 185.454888 77.662295 
L 159.086348 77.662295 
z
" clip-path="url(#p803215e909)" style="fill: #1f77b4; stroke: #000000; stroke-linejoin: miter"/>
   </g>
   <g id="patch_6">
    <path d="M 192.047022 278.504705 
L 218.415562 278.504705 
L 218.415562 179.718379 
L 192.047022 179.718379 
z
" clip-path="url(#p803215e909)" style="fill: #1f77b4; stroke: #000000; stroke-linejoin: miter"/>
   </g>
   <g id="patch_7">
    <path d="M 225.007697 278.504705 
L 251.376236 278.504705 
L 251.376236 208.815923 
L 225.007697 208.815923 
z
" clip-path="url(#p803215e909)" style="fill: #1f77b4; stroke: #000000; stroke-linejoin: miter"/>
   </g>
   <g id="patch_8">
    <path d="M 257.968371 278.504705 
L 284.33691 278.504705 
L 284.33691 137.43171 
L 257.968371 137.43171 
z
" clip-path="url(#p803215e909)" style="fill: #1f77b4; stroke: #000000; stroke-linejoin: miter"/>
   </g>
   <g id="patch_9">
    <path d="M 290.929045 278.504705 
L 317.297584 278.504705 
L 317.297584 150.620835 
L 290.929045 150.620835 
z
" clip-path="url(#p803215e909)" style="fill: #1f77b4; stroke: #000000; stroke-linejoin: miter"/>
   </g>
   <g id="patch_10">
    <path d="M 323.889719 278.504705 
L 350.258258 278.504705 
L 350.258258 246.996127 
L 323.889719 246.996127 
z
" clip-path="url(#p803215e909)" style="fill: #1f77b4; stroke: #000000; stroke-linejoin: miter"/>
   </g>
   <g id="patch_11">
    <path d="M 356.850393 278.504705 
L 383.218933 278.504705 
L 383.218933 278.504705 
L 356.850393 278.504705 
z
" clip-path="url(#p803215e909)" style="fill: #1f77b4; stroke: #000000; stroke-linejoin: miter"/>
   </g>
   <g id="patch_12">
    <path d="M 389.811067 278.504705 
L 416.179607 278.504705 
L 416.179607 162.158567 
L 389.811067 162.158567 
z
" clip-path="url(#p803215e909)" style="fill: #1f77b4; stroke: #000000; stroke-linejoin: miter"/>
   </g>
   <g id="patch_13">
    <path d="M 422.771742 278.504705 
L 449.140281 278.504705 
L 449.140281 238.111633 
L 422.771742 238.111633 
z
" clip-path="url(#p803215e909)" style="fill: #1f77b4; stroke: #000000; stroke-linejoin: miter"/>
   </g>
   <g id="patch_14">
    <path d="M 455.732416 278.504705 
L 482.100955 278.504705 
L 482.100955 201.681905 
L 455.732416 201.681905 
z
" clip-path="url(#p803215e909)" style="fill: #1f77b4; stroke: #000000; stroke-linejoin: miter"/>
   </g>
   <g id="patch_15">
    <path d="M 488.69309 278.504705 
L 515.061629 278.504705 
L 515.061629 190.738674 
L 488.69309 190.738674 
z
" clip-path="url(#p803215e909)" style="fill: #1f77b4; stroke: #000000; stroke-linejoin: miter"/>
   </g>
   <g id="patch_16">
    <path d="M 521.653764 278.504705 
L 548.022303 278.504705 
L 548.022303 205.4691 
L 521.653764 205.4691 
z
" clip-path="url(#p803215e909)" style="fill: #1f77b4; stroke: #000000; stroke-linejoin: miter"/>
   </g>
   <g id="patch_17">
    <path d="M 554.614438 278.504705 
L 580.982978 278.504705 
L 580.982978 124.374697 
L 554.614438 124.374697 
z
" clip-path="url(#p803215e909)" style="fill: #1f77b4; stroke: #000000; stroke-linejoin: miter"/>
   </g>
   <g id="patch_18">
    <path d="M 587.575112 278.504705 
L 613.943652 278.504705 
L 613.943652 205.347997 
L 587.575112 205.347997 
z
" clip-path="url(#p803215e909)" style="fill: #1f77b4; stroke: #000000; stroke-linejoin: miter"/>
   </g>
   <g id="patch_19">
    <path d="M 620.535787 278.504705 
L 646.904326 278.504705 
L 646.904326 87.273402 
L 620.535787 87.273402 
z
" clip-path="url(#p803215e909)" style="fill: #1f77b4; stroke: #000000; stroke-linejoin: miter"/>
   </g>
   <g id="patch_20">
    <path d="M 653.496461 278.504705 
L 679.865 278.504705 
L 679.865 216.346274 
L 653.496461 216.346274 
z
" clip-path="url(#p803215e909)" style="fill: #1f77b4; stroke: #000000; stroke-linejoin: miter"/>
   </g>
   <g id="matplotlib.axis_1">
    <g id="xtick_1">
     <g id="line2d_1">
      <defs>
       <path id="m746e7a723f" d="M 0 0 
L 0 3.5 
" style="stroke: #000000; stroke-width: 0.8"/>
      </defs>
      <g>
       <use xlink:href="#m746e7a723f" x="106.34927" y="278.504705" style="stroke: #000000; stroke-width: 0.8"/>
      </g>
     </g>
     <g id="text_1">
      <!-- Dodger's Playground -->
      <g transform="translate(31.235747 364.520573) rotate(-45) scale(0.1 -0.1)">
       <defs>
        <path id="DejaVuSans-44" d="M 1259 4147 
L 1259 519 
L 2022 519 
Q 2988 519 3436 956 
Q 3884 1394 3884 2338 
Q 3884 3275 3436 3711 
Q 2988 4147 2022 4147 
L 1259 4147 
z
M 628 4666 
L 1925 4666 
Q 3281 4666 3915 4102 
Q 4550 3538 4550 2338 
Q 4550 1131 3912 565 
Q 3275 0 1925 0 
L 628 0 
L 628 4666 
z
" transform="scale(0.015625)"/>
        <path id="DejaVuSans-6f" d="M 1959 3097 
Q 1497 3097 1228 2736 
Q 959 2375 959 1747 
Q 959 1119 1226 758 
Q 1494 397 1959 397 
Q 2419 397 2687 759 
Q 2956 1122 2956 1747 
Q 2956 2369 2687 2733 
Q 2419 3097 1959 3097 
z
M 1959 3584 
Q 2709 3584 3137 3096 
Q 3566 2609 3566 1747 
Q 3566 888 3137 398 
Q 2709 -91 1959 -91 
Q 1206 -91 779 398 
Q 353 888 353 1747 
Q 353 2609 779 3096 
Q 1206 3584 1959 3584 
z
" transform="scale(0.015625)"/>
        <path id="DejaVuSans-64" d="M 2906 2969 
L 2906 4863 
L 3481 4863 
L 3481 0 
L 2906 0 
L 2906 525 
Q 2725 213 2448 61 
Q 2172 -91 1784 -91 
Q 1150 -91 751 415 
Q 353 922 353 1747 
Q 353 2572 751 3078 
Q 1150 3584 1784 3584 
Q 2172 3584 2448 3432 
Q 2725 3281 2906 2969 
z
M 947 1747 
Q 947 1113 1208 752 
Q 1469 391 1925 391 
Q 2381 391 2643 752 
Q 2906 1113 2906 1747 
Q 2906 2381 2643 2742 
Q 2381 3103 1925 3103 
Q 1469 3103 1208 2742 
Q 947 2381 947 1747 
z
" transform="scale(0.015625)"/>
        <path id="DejaVuSans-67" d="M 2906 1791 
Q 2906 2416 2648 2759 
Q 2391 3103 1925 3103 
Q 1463 3103 1205 2759 
Q 947 2416 947 1791 
Q 947 1169 1205 825 
Q 1463 481 1925 481 
Q 2391 481 2648 825 
Q 2906 1169 2906 1791 
z
M 3481 434 
Q 3481 -459 3084 -895 
Q 2688 -1331 1869 -1331 
Q 1566 -1331 1297 -1286 
Q 1028 -1241 775 -1147 
L 775 -588 
Q 1028 -725 1275 -790 
Q 1522 -856 1778 -856 
Q 2344 -856 2625 -561 
Q 2906 -266 2906 331 
L 2906 616 
Q 2728 306 2450 153 
Q 2172 0 1784 0 
Q 1141 0 747 490 
Q 353 981 353 1791 
Q 353 2603 747 3093 
Q 1141 3584 1784 3584 
Q 2172 3584 2450 3431 
Q 2728 3278 2906 2969 
L 2906 3500 
L 3481 3500 
L 3481 434 
z
" transform="scale(0.015625)"/>
        <path id="DejaVuSans-65" d="M 3597 1894 
L 3597 1613 
L 953 1613 
Q 991 1019 1311 708 
Q 1631 397 2203 397 
Q 2534 397 2845 478 
Q 3156 559 3463 722 
L 3463 178 
Q 3153 47 2828 -22 
Q 2503 -91 2169 -91 
Q 1331 -91 842 396 
Q 353 884 353 1716 
Q 353 2575 817 3079 
Q 1281 3584 2069 3584 
Q 2775 3584 3186 3129 
Q 3597 2675 3597 1894 
z
M 3022 2063 
Q 3016 2534 2758 2815 
Q 2500 3097 2075 3097 
Q 1594 3097 1305 2825 
Q 1016 2553 972 2059 
L 3022 2063 
z
" transform="scale(0.015625)"/>
        <path id="DejaVuSans-72" d="M 2631 2963 
Q 2534 3019 2420 3045 
Q 2306 3072 2169 3072 
Q 1681 3072 1420 2755 
Q 1159 2438 1159 1844 
L 1159 0 
L 581 0 
L 581 3500 
L 1159 3500 
L 1159 2956 
Q 1341 3275 1631 3429 
Q 1922 3584 2338 3584 
Q 2397 3584 2469 3576 
Q 2541 3569 2628 3553 
L 2631 2963 
z
" transform="scale(0.015625)"/>
        <path id="DejaVuSans-27" d="M 1147 4666 
L 1147 2931 
L 616 2931 
L 616 4666 
L 1147 4666 
z
" transform="scale(0.015625)"/>
        <path id="DejaVuSans-73" d="M 2834 3397 
L 2834 2853 
Q 2591 2978 2328 3040 
Q 2066 3103 1784 3103 
Q 1356 3103 1142 2972 
Q 928 2841 928 2578 
Q 928 2378 1081 2264 
Q 1234 2150 1697 2047 
L 1894 2003 
Q 2506 1872 2764 1633 
Q 3022 1394 3022 966 
Q 3022 478 2636 193 
Q 2250 -91 1575 -91 
Q 1294 -91 989 -36 
Q 684 19 347 128 
L 347 722 
Q 666 556 975 473 
Q 1284 391 1588 391 
Q 1994 391 2212 530 
Q 2431 669 2431 922 
Q 2431 1156 2273 1281 
Q 2116 1406 1581 1522 
L 1381 1569 
Q 847 1681 609 1914 
Q 372 2147 372 2553 
Q 372 3047 722 3315 
Q 1072 3584 1716 3584 
Q 2034 3584 2315 3537 
Q 2597 3491 2834 3397 
z
" transform="scale(0.015625)"/>
        <path id="DejaVuSans-20" transform="scale(0.015625)"/>
        <path id="DejaVuSans-50" d="M 1259 4147 
L 1259 2394 
L 2053 2394 
Q 2494 2394 2734 2622 
Q 2975 2850 2975 3272 
Q 2975 3691 2734 3919 
Q 2494 4147 2053 4147 
L 1259 4147 
z
M 628 4666 
L 2053 4666 
Q 2838 4666 3239 4311 
Q 3641 3956 3641 3272 
Q 3641 2581 3239 2228 
Q 2838 1875 2053 1875 
L 1259 1875 
L 1259 0 
L 628 0 
L 628 4666 
z
" transform="scale(0.015625)"/>
        <path id="DejaVuSans-6c" d="M 603 4863 
L 1178 4863 
L 1178 0 
L 603 0 
L 603 4863 
z
" transform="scale(0.015625)"/>
        <path id="DejaVuSans-61" d="M 2194 1759 
Q 1497 1759 1228 1600 
Q 959 1441 959 1056 
Q 959 750 1161 570 
Q 1363 391 1709 391 
Q 2188 391 2477 730 
Q 2766 1069 2766 1631 
L 2766 1759 
L 2194 1759 
z
M 3341 1997 
L 3341 0 
L 2766 0 
L 2766 531 
Q 2569 213 2275 61 
Q 1981 -91 1556 -91 
Q 1019 -91 701 211 
Q 384 513 384 1019 
Q 384 1609 779 1909 
Q 1175 2209 1959 2209 
L 2766 2209 
L 2766 2266 
Q 2766 2663 2505 2880 
Q 2244 3097 1772 3097 
Q 1472 3097 1187 3025 
Q 903 2953 641 2809 
L 641 3341 
Q 956 3463 1253 3523 
Q 1550 3584 1831 3584 
Q 2591 3584 2966 3190 
Q 3341 2797 3341 1997 
z
" transform="scale(0.015625)"/>
        <path id="DejaVuSans-79" d="M 2059 -325 
Q 1816 -950 1584 -1140 
Q 1353 -1331 966 -1331 
L 506 -1331 
L 506 -850 
L 844 -850 
Q 1081 -850 1212 -737 
Q 1344 -625 1503 -206 
L 1606 56 
L 191 3500 
L 800 3500 
L 1894 763 
L 2988 3500 
L 3597 3500 
L 2059 -325 
z
" transform="scale(0.015625)"/>
        <path id="DejaVuSans-75" d="M 544 1381 
L 544 3500 
L 1119 3500 
L 1119 1403 
Q 1119 906 1312 657 
Q 1506 409 1894 409 
Q 2359 409 2629 706 
Q 2900 1003 2900 1516 
L 2900 3500 
L 3475 3500 
L 3475 0 
L 2900 0 
L 2900 538 
Q 2691 219 2414 64 
Q 2138 -91 1772 -91 
Q 1169 -91 856 284 
Q 544 659 544 1381 
z
M 1991 3584 
L 1991 3584 
z
" transform="scale(0.015625)"/>
        <path id="DejaVuSans-6e" d="M 3513 2113 
L 3513 0 
L 2938 0 
L 2938 2094 
Q 2938 2591 2744 2837 
Q 2550 3084 2163 3084 
Q 1697 3084 1428 2787 
Q 1159 2491 1159 1978 
L 1159 0 
L 581 0 
L 581 3500 
L 1159 3500 
L 1159 2956 
Q 1366 3272 1645 3428 
Q 1925 3584 2291 3584 
Q 2894 3584 3203 3211 
Q 3513 2838 3513 2113 
z
" transform="scale(0.015625)"/>
       </defs>
       <use xlink:href="#DejaVuSans-44"/>
       <use xlink:href="#DejaVuSans-6f" transform="translate(77.001953 0)"/>
       <use xlink:href="#DejaVuSans-64" transform="translate(138.183594 0)"/>
       <use xlink:href="#DejaVuSans-67" transform="translate(201.660156 0)"/>
       <use xlink:href="#DejaVuSans-65" transform="translate(265.136719 0)"/>
       <use xlink:href="#DejaVuSans-72" transform="translate(326.660156 0)"/>
       <use xlink:href="#DejaVuSans-27" transform="translate(367.773438 0)"/>
       <use xlink:href="#DejaVuSans-73" transform="translate(395.263672 0)"/>
       <use xlink:href="#DejaVuSans-20" transform="translate(447.363281 0)"/>
       <use xlink:href="#DejaVuSans-50" transform="translate(479.150391 0)"/>
       <use xlink:href="#DejaVuSans-6c" transform="translate(539.453125 0)"/>
       <use xlink:href="#DejaVuSans-61" transform="translate(567.236328 0)"/>
       <use xlink:href="#DejaVuSans-79" transform="translate(628.515625 0)"/>
       <use xlink:href="#DejaVuSans-67" transform="translate(687.695312 0)"/>
       <use xlink:href="#DejaVuSans-72" transform="translate(751.171875 0)"/>
       <use xlink:href="#DejaVuSans-6f" transform="translate(790.035156 0)"/>
       <use xlink:href="#DejaVuSans-75" transform="translate(851.216797 0)"/>
       <use xlink:href="#DejaVuSans-6e" transform="translate(914.595703 0)"/>
       <use xlink:href="#DejaVuSans-64" transform="translate(977.974609 0)"/>
      </g>
     </g>
    </g>
    <g id="xtick_2">
     <g id="line2d_2">
      <g>
       <use xlink:href="#m746e7a723f" x="139.309944" y="278.504705" style="stroke: #000000; stroke-width: 0.8"/>
      </g>
     </g>
     <g id="text_2">
      <!-- Angeles National Forest -->
      <g transform="translate(54.030656 374.686338) rotate(-45) scale(0.1 -0.1)">
       <defs>
        <path id="DejaVuSans-41" d="M 2188 4044 
L 1331 1722 
L 3047 1722 
L 2188 4044 
z
M 1831 4666 
L 2547 4666 
L 4325 0 
L 3669 0 
L 3244 1197 
L 1141 1197 
L 716 0 
L 50 0 
L 1831 4666 
z
" transform="scale(0.015625)"/>
        <path id="DejaVuSans-4e" d="M 628 4666 
L 1478 4666 
L 3547 763 
L 3547 4666 
L 4159 4666 
L 4159 0 
L 3309 0 
L 1241 3903 
L 1241 0 
L 628 0 
L 628 4666 
z
" transform="scale(0.015625)"/>
        <path id="DejaVuSans-74" d="M 1172 4494 
L 1172 3500 
L 2356 3500 
L 2356 3053 
L 1172 3053 
L 1172 1153 
Q 1172 725 1289 603 
Q 1406 481 1766 481 
L 2356 481 
L 2356 0 
L 1766 0 
Q 1100 0 847 248 
Q 594 497 594 1153 
L 594 3053 
L 172 3053 
L 172 3500 
L 594 3500 
L 594 4494 
L 1172 4494 
z
" transform="scale(0.015625)"/>
        <path id="DejaVuSans-69" d="M 603 3500 
L 1178 3500 
L 1178 0 
L 603 0 
L 603 3500 
z
M 603 4863 
L 1178 4863 
L 1178 4134 
L 603 4134 
L 603 4863 
z
" transform="scale(0.015625)"/>
        <path id="DejaVuSans-46" d="M 628 4666 
L 3309 4666 
L 3309 4134 
L 1259 4134 
L 1259 2759 
L 3109 2759 
L 3109 2228 
L 1259 2228 
L 1259 0 
L 628 0 
L 628 4666 
z
" transform="scale(0.015625)"/>
       </defs>
       <use xlink:href="#DejaVuSans-41"/>
       <use xlink:href="#DejaVuSans-6e" transform="translate(68.408203 0)"/>
       <use xlink:href="#DejaVuSans-67" transform="translate(131.787109 0)"/>
       <use xlink:href="#DejaVuSans-65" transform="translate(195.263672 0)"/>
       <use xlink:href="#DejaVuSans-6c" transform="translate(256.787109 0)"/>
       <use xlink:href="#DejaVuSans-65" transform="translate(284.570312 0)"/>
       <use xlink:href="#DejaVuSans-73" transform="translate(346.09375 0)"/>
       <use xlink:href="#DejaVuSans-20" transform="translate(398.193359 0)"/>
       <use xlink:href="#DejaVuSans-4e" transform="translate(429.980469 0)"/>
       <use xlink:href="#DejaVuSans-61" transform="translate(504.785156 0)"/>
       <use xlink:href="#DejaVuSans-74" transform="translate(566.064453 0)"/>
       <use xlink:href="#DejaVuSans-69" transform="translate(605.273438 0)"/>
       <use xlink:href="#DejaVuSans-6f" transform="translate(633.056641 0)"/>
       <use xlink:href="#DejaVuSans-6e" transform="translate(694.238281 0)"/>
       <use xlink:href="#DejaVuSans-61" transform="translate(757.617188 0)"/>
       <use xlink:href="#DejaVuSans-6c" transform="translate(818.896484 0)"/>
       <use xlink:href="#DejaVuSans-20" transform="translate(846.679688 0)"/>
       <use xlink:href="#DejaVuSans-46" transform="translate(878.466797 0)"/>
       <use xlink:href="#DejaVuSans-6f" transform="translate(932.361328 0)"/>
       <use xlink:href="#DejaVuSans-72" transform="translate(993.542969 0)"/>
       <use xlink:href="#DejaVuSans-65" transform="translate(1032.40625 0)"/>
       <use xlink:href="#DejaVuSans-73" transform="translate(1093.929688 0)"/>
       <use xlink:href="#DejaVuSans-74" transform="translate(1146.029297 0)"/>
      </g>
     </g>
    </g>
    <g id="xtick_3">
     <g id="line2d_3">
      <g>
       <use xlink:href="#m746e7a723f" x="172.270618" y="278.504705" style="stroke: #000000; stroke-width: 0.8"/>
      </g>
     </g>
     <g id="text_3">
      <!-- Bailey Canyon Debris Basin -->
      <g transform="translate(73.509898 388.16777) rotate(-45) scale(0.1 -0.1)">
       <defs>
        <path id="DejaVuSans-42" d="M 1259 2228 
L 1259 519 
L 2272 519 
Q 2781 519 3026 730 
Q 3272 941 3272 1375 
Q 3272 1813 3026 2020 
Q 2781 2228 2272 2228 
L 1259 2228 
z
M 1259 4147 
L 1259 2741 
L 2194 2741 
Q 2656 2741 2882 2914 
Q 3109 3088 3109 3444 
Q 3109 3797 2882 3972 
Q 2656 4147 2194 4147 
L 1259 4147 
z
M 628 4666 
L 2241 4666 
Q 2963 4666 3353 4366 
Q 3744 4066 3744 3513 
Q 3744 3084 3544 2831 
Q 3344 2578 2956 2516 
Q 3422 2416 3680 2098 
Q 3938 1781 3938 1306 
Q 3938 681 3513 340 
Q 3088 0 2303 0 
L 628 0 
L 628 4666 
z
" transform="scale(0.015625)"/>
        <path id="DejaVuSans-43" d="M 4122 4306 
L 4122 3641 
Q 3803 3938 3442 4084 
Q 3081 4231 2675 4231 
Q 1875 4231 1450 3742 
Q 1025 3253 1025 2328 
Q 1025 1406 1450 917 
Q 1875 428 2675 428 
Q 3081 428 3442 575 
Q 3803 722 4122 1019 
L 4122 359 
Q 3791 134 3420 21 
Q 3050 -91 2638 -91 
Q 1578 -91 968 557 
Q 359 1206 359 2328 
Q 359 3453 968 4101 
Q 1578 4750 2638 4750 
Q 3056 4750 3426 4639 
Q 3797 4528 4122 4306 
z
" transform="scale(0.015625)"/>
        <path id="DejaVuSans-62" d="M 3116 1747 
Q 3116 2381 2855 2742 
Q 2594 3103 2138 3103 
Q 1681 3103 1420 2742 
Q 1159 2381 1159 1747 
Q 1159 1113 1420 752 
Q 1681 391 2138 391 
Q 2594 391 2855 752 
Q 3116 1113 3116 1747 
z
M 1159 2969 
Q 1341 3281 1617 3432 
Q 1894 3584 2278 3584 
Q 2916 3584 3314 3078 
Q 3713 2572 3713 1747 
Q 3713 922 3314 415 
Q 2916 -91 2278 -91 
Q 1894 -91 1617 61 
Q 1341 213 1159 525 
L 1159 0 
L 581 0 
L 581 4863 
L 1159 4863 
L 1159 2969 
z
" transform="scale(0.015625)"/>
       </defs>
       <use xlink:href="#DejaVuSans-42"/>
       <use xlink:href="#DejaVuSans-61" transform="translate(68.603516 0)"/>
       <use xlink:href="#DejaVuSans-69" transform="translate(129.882812 0)"/>
       <use xlink:href="#DejaVuSans-6c" transform="translate(157.666016 0)"/>
       <use xlink:href="#DejaVuSans-65" transform="translate(185.449219 0)"/>
       <use xlink:href="#DejaVuSans-79" transform="translate(246.972656 0)"/>
       <use xlink:href="#DejaVuSans-20" transform="translate(306.152344 0)"/>
       <use xlink:href="#DejaVuSans-43" transform="translate(337.939453 0)"/>
       <use xlink:href="#DejaVuSans-61" transform="translate(407.763672 0)"/>
       <use xlink:href="#DejaVuSans-6e" transform="translate(469.042969 0)"/>
       <use xlink:href="#DejaVuSans-79" transform="translate(532.421875 0)"/>
       <use xlink:href="#DejaVuSans-6f" transform="translate(591.601562 0)"/>
       <use xlink:href="#DejaVuSans-6e" transform="translate(652.783203 0)"/>
       <use xlink:href="#DejaVuSans-20" transform="translate(716.162109 0)"/>
       <use xlink:href="#DejaVuSans-44" transform="translate(747.949219 0)"/>
       <use xlink:href="#DejaVuSans-65" transform="translate(824.951172 0)"/>
       <use xlink:href="#DejaVuSans-62" transform="translate(886.474609 0)"/>
       <use xlink:href="#DejaVuSans-72" transform="translate(949.951172 0)"/>
       <use xlink:href="#DejaVuSans-69" transform="translate(991.064453 0)"/>
       <use xlink:href="#DejaVuSans-73" transform="translate(1018.847656 0)"/>
       <use xlink:href="#DejaVuSans-20" transform="translate(1070.947266 0)"/>
       <use xlink:href="#DejaVuSans-42" transform="translate(1102.734375 0)"/>
       <use xlink:href="#DejaVuSans-61" transform="translate(1171.337891 0)"/>
       <use xlink:href="#DejaVuSans-73" transform="translate(1232.617188 0)"/>
       <use xlink:href="#DejaVuSans-69" transform="translate(1284.716797 0)"/>
       <use xlink:href="#DejaVuSans-6e" transform="translate(1312.5 0)"/>
      </g>
     </g>
    </g>
    <g id="xtick_4">
     <g id="line2d_4">
      <g>
       <use xlink:href="#m746e7a723f" x="205.231292" y="278.504705" style="stroke: #000000; stroke-width: 0.8"/>
      </g>
     </g>
     <g id="text_4">
      <!-- Hamilton Park -->
      <g transform="translate(154.185917 340.452426) rotate(-45) scale(0.1 -0.1)">
       <defs>
        <path id="DejaVuSans-48" d="M 628 4666 
L 1259 4666 
L 1259 2753 
L 3553 2753 
L 3553 4666 
L 4184 4666 
L 4184 0 
L 3553 0 
L 3553 2222 
L 1259 2222 
L 1259 0 
L 628 0 
L 628 4666 
z
" transform="scale(0.015625)"/>
        <path id="DejaVuSans-6d" d="M 3328 2828 
Q 3544 3216 3844 3400 
Q 4144 3584 4550 3584 
Q 5097 3584 5394 3201 
Q 5691 2819 5691 2113 
L 5691 0 
L 5113 0 
L 5113 2094 
Q 5113 2597 4934 2840 
Q 4756 3084 4391 3084 
Q 3944 3084 3684 2787 
Q 3425 2491 3425 1978 
L 3425 0 
L 2847 0 
L 2847 2094 
Q 2847 2600 2669 2842 
Q 2491 3084 2119 3084 
Q 1678 3084 1418 2786 
Q 1159 2488 1159 1978 
L 1159 0 
L 581 0 
L 581 3500 
L 1159 3500 
L 1159 2956 
Q 1356 3278 1631 3431 
Q 1906 3584 2284 3584 
Q 2666 3584 2933 3390 
Q 3200 3197 3328 2828 
z
" transform="scale(0.015625)"/>
        <path id="DejaVuSans-6b" d="M 581 4863 
L 1159 4863 
L 1159 1991 
L 2875 3500 
L 3609 3500 
L 1753 1863 
L 3688 0 
L 2938 0 
L 1159 1709 
L 1159 0 
L 581 0 
L 581 4863 
z
" transform="scale(0.015625)"/>
       </defs>
       <use xlink:href="#DejaVuSans-48"/>
       <use xlink:href="#DejaVuSans-61" transform="translate(75.195312 0)"/>
       <use xlink:href="#DejaVuSans-6d" transform="translate(136.474609 0)"/>
       <use xlink:href="#DejaVuSans-69" transform="translate(233.886719 0)"/>
       <use xlink:href="#DejaVuSans-6c" transform="translate(261.669922 0)"/>
       <use xlink:href="#DejaVuSans-74" transform="translate(289.453125 0)"/>
       <use xlink:href="#DejaVuSans-6f" transform="translate(328.662109 0)"/>
       <use xlink:href="#DejaVuSans-6e" transform="translate(389.84375 0)"/>
       <use xlink:href="#DejaVuSans-20" transform="translate(453.222656 0)"/>
       <use xlink:href="#DejaVuSans-50" transform="translate(485.009766 0)"/>
       <use xlink:href="#DejaVuSans-61" transform="translate(540.8125 0)"/>
       <use xlink:href="#DejaVuSans-72" transform="translate(602.091797 0)"/>
       <use xlink:href="#DejaVuSans-6b" transform="translate(643.205078 0)"/>
      </g>
     </g>
    </g>
    <g id="xtick_5">
     <g id="line2d_5">
      <g>
       <use xlink:href="#m746e7a723f" x="238.191966" y="278.504705" style="stroke: #000000; stroke-width: 0.8"/>
      </g>
     </g>
     <g id="text_5">
      <!-- Alice's Dog Park -->
      <g transform="translate(180.054531 347.544486) rotate(-45) scale(0.1 -0.1)">
       <defs>
        <path id="DejaVuSans-63" d="M 3122 3366 
L 3122 2828 
Q 2878 2963 2633 3030 
Q 2388 3097 2138 3097 
Q 1578 3097 1268 2742 
Q 959 2388 959 1747 
Q 959 1106 1268 751 
Q 1578 397 2138 397 
Q 2388 397 2633 464 
Q 2878 531 3122 666 
L 3122 134 
Q 2881 22 2623 -34 
Q 2366 -91 2075 -91 
Q 1284 -91 818 406 
Q 353 903 353 1747 
Q 353 2603 823 3093 
Q 1294 3584 2113 3584 
Q 2378 3584 2631 3529 
Q 2884 3475 3122 3366 
z
" transform="scale(0.015625)"/>
       </defs>
       <use xlink:href="#DejaVuSans-41"/>
       <use xlink:href="#DejaVuSans-6c" transform="translate(68.408203 0)"/>
       <use xlink:href="#DejaVuSans-69" transform="translate(96.191406 0)"/>
       <use xlink:href="#DejaVuSans-63" transform="translate(123.974609 0)"/>
       <use xlink:href="#DejaVuSans-65" transform="translate(178.955078 0)"/>
       <use xlink:href="#DejaVuSans-27" transform="translate(240.478516 0)"/>
       <use xlink:href="#DejaVuSans-73" transform="translate(267.96875 0)"/>
       <use xlink:href="#DejaVuSans-20" transform="translate(320.068359 0)"/>
       <use xlink:href="#DejaVuSans-44" transform="translate(351.855469 0)"/>
       <use xlink:href="#DejaVuSans-6f" transform="translate(428.857422 0)"/>
       <use xlink:href="#DejaVuSans-67" transform="translate(490.039062 0)"/>
       <use xlink:href="#DejaVuSans-20" transform="translate(553.515625 0)"/>
       <use xlink:href="#DejaVuSans-50" transform="translate(585.302734 0)"/>
       <use xlink:href="#DejaVuSans-61" transform="translate(641.105469 0)"/>
       <use xlink:href="#DejaVuSans-72" transform="translate(702.384766 0)"/>
       <use xlink:href="#DejaVuSans-6b" transform="translate(743.498047 0)"/>
      </g>
     </g>
    </g>
    <g id="xtick_6">
     <g id="line2d_6">
      <g>
       <use xlink:href="#m746e7a723f" x="271.15264" y="278.504705" style="stroke: #000000; stroke-width: 0.8"/>
      </g>
     </g>
     <g id="text_6">
      <!-- Victory Park -->
      <g transform="translate(227.433554 333.126137) rotate(-45) scale(0.1 -0.1)">
       <defs>
        <path id="DejaVuSans-56" d="M 1831 0 
L 50 4666 
L 709 4666 
L 2188 738 
L 3669 4666 
L 4325 4666 
L 2547 0 
L 1831 0 
z
" transform="scale(0.015625)"/>
       </defs>
       <use xlink:href="#DejaVuSans-56"/>
       <use xlink:href="#DejaVuSans-69" transform="translate(66.158203 0)"/>
       <use xlink:href="#DejaVuSans-63" transform="translate(93.941406 0)"/>
       <use xlink:href="#DejaVuSans-74" transform="translate(148.921875 0)"/>
       <use xlink:href="#DejaVuSans-6f" transform="translate(188.130859 0)"/>
       <use xlink:href="#DejaVuSans-72" transform="translate(249.3125 0)"/>
       <use xlink:href="#DejaVuSans-79" transform="translate(290.425781 0)"/>
       <use xlink:href="#DejaVuSans-20" transform="translate(349.605469 0)"/>
       <use xlink:href="#DejaVuSans-50" transform="translate(381.392578 0)"/>
       <use xlink:href="#DejaVuSans-61" transform="translate(437.195312 0)"/>
       <use xlink:href="#DejaVuSans-72" transform="translate(498.474609 0)"/>
       <use xlink:href="#DejaVuSans-6b" transform="translate(539.587891 0)"/>
      </g>
     </g>
    </g>
    <g id="xtick_7">
     <g id="line2d_7">
      <g>
       <use xlink:href="#m746e7a723f" x="304.113315" y="278.504705" style="stroke: #000000; stroke-width: 0.8"/>
      </g>
     </g>
     <g id="text_7">
      <!-- Washington Park -->
      <g transform="translate(243.561772 349.958593) rotate(-45) scale(0.1 -0.1)">
       <defs>
        <path id="DejaVuSans-57" d="M 213 4666 
L 850 4666 
L 1831 722 
L 2809 4666 
L 3519 4666 
L 4500 722 
L 5478 4666 
L 6119 4666 
L 4947 0 
L 4153 0 
L 3169 4050 
L 2175 0 
L 1381 0 
L 213 4666 
z
" transform="scale(0.015625)"/>
        <path id="DejaVuSans-68" d="M 3513 2113 
L 3513 0 
L 2938 0 
L 2938 2094 
Q 2938 2591 2744 2837 
Q 2550 3084 2163 3084 
Q 1697 3084 1428 2787 
Q 1159 2491 1159 1978 
L 1159 0 
L 581 0 
L 581 4863 
L 1159 4863 
L 1159 2956 
Q 1366 3272 1645 3428 
Q 1925 3584 2291 3584 
Q 2894 3584 3203 3211 
Q 3513 2838 3513 2113 
z
" transform="scale(0.015625)"/>
       </defs>
       <use xlink:href="#DejaVuSans-57"/>
       <use xlink:href="#DejaVuSans-61" transform="translate(92.501953 0)"/>
       <use xlink:href="#DejaVuSans-73" transform="translate(153.78125 0)"/>
       <use xlink:href="#DejaVuSans-68" transform="translate(205.880859 0)"/>
       <use xlink:href="#DejaVuSans-69" transform="translate(269.259766 0)"/>
       <use xlink:href="#DejaVuSans-6e" transform="translate(297.042969 0)"/>
       <use xlink:href="#DejaVuSans-67" transform="translate(360.421875 0)"/>
       <use xlink:href="#DejaVuSans-74" transform="translate(423.898438 0)"/>
       <use xlink:href="#DejaVuSans-6f" transform="translate(463.107422 0)"/>
       <use xlink:href="#DejaVuSans-6e" transform="translate(524.289062 0)"/>
       <use xlink:href="#DejaVuSans-20" transform="translate(587.667969 0)"/>
       <use xlink:href="#DejaVuSans-50" transform="translate(619.455078 0)"/>
       <use xlink:href="#DejaVuSans-61" transform="translate(675.257812 0)"/>
       <use xlink:href="#DejaVuSans-72" transform="translate(736.537109 0)"/>
       <use xlink:href="#DejaVuSans-6b" transform="translate(777.650391 0)"/>
      </g>
     </g>
    </g>
    <g id="xtick_8">
     <g id="line2d_8">
      <g>
       <use xlink:href="#m746e7a723f" x="337.073989" y="278.504705" style="stroke: #000000; stroke-width: 0.8"/>
      </g>
     </g>
     <g id="text_8">
      <!-- La Pintoresca Park -->
      <g transform="translate(270.903157 355.577882) rotate(-45) scale(0.1 -0.1)">
       <defs>
        <path id="DejaVuSans-4c" d="M 628 4666 
L 1259 4666 
L 1259 531 
L 3531 531 
L 3531 0 
L 628 0 
L 628 4666 
z
" transform="scale(0.015625)"/>
       </defs>
       <use xlink:href="#DejaVuSans-4c"/>
       <use xlink:href="#DejaVuSans-61" transform="translate(55.712891 0)"/>
       <use xlink:href="#DejaVuSans-20" transform="translate(116.992188 0)"/>
       <use xlink:href="#DejaVuSans-50" transform="translate(148.779297 0)"/>
       <use xlink:href="#DejaVuSans-69" transform="translate(206.832031 0)"/>
       <use xlink:href="#DejaVuSans-6e" transform="translate(234.615234 0)"/>
       <use xlink:href="#DejaVuSans-74" transform="translate(297.994141 0)"/>
       <use xlink:href="#DejaVuSans-6f" transform="translate(337.203125 0)"/>
       <use xlink:href="#DejaVuSans-72" transform="translate(398.384766 0)"/>
       <use xlink:href="#DejaVuSans-65" transform="translate(437.248047 0)"/>
       <use xlink:href="#DejaVuSans-73" transform="translate(498.771484 0)"/>
       <use xlink:href="#DejaVuSans-63" transform="translate(550.871094 0)"/>
       <use xlink:href="#DejaVuSans-61" transform="translate(605.851562 0)"/>
       <use xlink:href="#DejaVuSans-20" transform="translate(667.130859 0)"/>
       <use xlink:href="#DejaVuSans-50" transform="translate(698.917969 0)"/>
       <use xlink:href="#DejaVuSans-61" transform="translate(754.720703 0)"/>
       <use xlink:href="#DejaVuSans-72" transform="translate(816 0)"/>
       <use xlink:href="#DejaVuSans-6b" transform="translate(857.113281 0)"/>
      </g>
     </g>
    </g>
    <g id="xtick_9">
     <g id="line2d_9">
      <g>
       <use xlink:href="#m746e7a723f" x="370.034663" y="278.504705" style="stroke: #000000; stroke-width: 0.8"/>
      </g>
     </g>
     <g id="text_9">
      <!-- Altadena - Auto Center -->
      <g transform="translate(287.493204 371.948509) rotate(-45) scale(0.1 -0.1)">
       <defs>
        <path id="DejaVuSans-2d" d="M 313 2009 
L 1997 2009 
L 1997 1497 
L 313 1497 
L 313 2009 
z
" transform="scale(0.015625)"/>
       </defs>
       <use xlink:href="#DejaVuSans-41"/>
       <use xlink:href="#DejaVuSans-6c" transform="translate(68.408203 0)"/>
       <use xlink:href="#DejaVuSans-74" transform="translate(96.191406 0)"/>
       <use xlink:href="#DejaVuSans-61" transform="translate(135.400391 0)"/>
       <use xlink:href="#DejaVuSans-64" transform="translate(196.679688 0)"/>
       <use xlink:href="#DejaVuSans-65" transform="translate(260.15625 0)"/>
       <use xlink:href="#DejaVuSans-6e" transform="translate(321.679688 0)"/>
       <use xlink:href="#DejaVuSans-61" transform="translate(385.058594 0)"/>
       <use xlink:href="#DejaVuSans-20" transform="translate(446.337891 0)"/>
       <use xlink:href="#DejaVuSans-2d" transform="translate(478.125 0)"/>
       <use xlink:href="#DejaVuSans-20" transform="translate(514.208984 0)"/>
       <use xlink:href="#DejaVuSans-41" transform="translate(545.996094 0)"/>
       <use xlink:href="#DejaVuSans-75" transform="translate(614.404297 0)"/>
       <use xlink:href="#DejaVuSans-74" transform="translate(677.783203 0)"/>
       <use xlink:href="#DejaVuSans-6f" transform="translate(716.992188 0)"/>
       <use xlink:href="#DejaVuSans-20" transform="translate(778.173828 0)"/>
       <use xlink:href="#DejaVuSans-43" transform="translate(809.960938 0)"/>
       <use xlink:href="#DejaVuSans-65" transform="translate(879.785156 0)"/>
       <use xlink:href="#DejaVuSans-6e" transform="translate(941.308594 0)"/>
       <use xlink:href="#DejaVuSans-74" transform="translate(1004.6875 0)"/>
       <use xlink:href="#DejaVuSans-65" transform="translate(1043.896484 0)"/>
       <use xlink:href="#DejaVuSans-72" transform="translate(1105.419922 0)"/>
      </g>
     </g>
    </g>
    <g id="xtick_10">
     <g id="line2d_10">
      <g>
       <use xlink:href="#m746e7a723f" x="402.995337" y="278.504705" style="stroke: #000000; stroke-width: 0.8"/>
      </g>
     </g>
     <g id="text_10">
      <!-- Altadena - Classic Car Lot -->
      <g transform="translate(310.875896 381.526491) rotate(-45) scale(0.1 -0.1)">
       <use xlink:href="#DejaVuSans-41"/>
       <use xlink:href="#DejaVuSans-6c" transform="translate(68.408203 0)"/>
       <use xlink:href="#DejaVuSans-74" transform="translate(96.191406 0)"/>
       <use xlink:href="#DejaVuSans-61" transform="translate(135.400391 0)"/>
       <use xlink:href="#DejaVuSans-64" transform="translate(196.679688 0)"/>
       <use xlink:href="#DejaVuSans-65" transform="translate(260.15625 0)"/>
       <use xlink:href="#DejaVuSans-6e" transform="translate(321.679688 0)"/>
       <use xlink:href="#DejaVuSans-61" transform="translate(385.058594 0)"/>
       <use xlink:href="#DejaVuSans-20" transform="translate(446.337891 0)"/>
       <use xlink:href="#DejaVuSans-2d" transform="translate(478.125 0)"/>
       <use xlink:href="#DejaVuSans-20" transform="translate(514.208984 0)"/>
       <use xlink:href="#DejaVuSans-43" transform="translate(545.996094 0)"/>
       <use xlink:href="#DejaVuSans-6c" transform="translate(615.820312 0)"/>
       <use xlink:href="#DejaVuSans-61" transform="translate(643.603516 0)"/>
       <use xlink:href="#DejaVuSans-73" transform="translate(704.882812 0)"/>
       <use xlink:href="#DejaVuSans-73" transform="translate(756.982422 0)"/>
       <use xlink:href="#DejaVuSans-69" transform="translate(809.082031 0)"/>
       <use xlink:href="#DejaVuSans-63" transform="translate(836.865234 0)"/>
       <use xlink:href="#DejaVuSans-20" transform="translate(891.845703 0)"/>
       <use xlink:href="#DejaVuSans-43" transform="translate(923.632812 0)"/>
       <use xlink:href="#DejaVuSans-61" transform="translate(993.457031 0)"/>
       <use xlink:href="#DejaVuSans-72" transform="translate(1054.736328 0)"/>
       <use xlink:href="#DejaVuSans-20" transform="translate(1095.849609 0)"/>
       <use xlink:href="#DejaVuSans-4c" transform="translate(1127.636719 0)"/>
       <use xlink:href="#DejaVuSans-6f" transform="translate(1181.599609 0)"/>
       <use xlink:href="#DejaVuSans-74" transform="translate(1242.78125 0)"/>
      </g>
     </g>
    </g>
    <g id="xtick_11">
     <g id="line2d_11">
      <g>
       <use xlink:href="#m746e7a723f" x="435.956011" y="278.504705" style="stroke: #000000; stroke-width: 0.8"/>
      </g>
     </g>
     <g id="text_11">
      <!-- Sierra Madre Burned House -->
      <g transform="translate(337.296938 388.066124) rotate(-45) scale(0.1 -0.1)">
       <defs>
        <path id="DejaVuSans-53" d="M 3425 4513 
L 3425 3897 
Q 3066 4069 2747 4153 
Q 2428 4238 2131 4238 
Q 1616 4238 1336 4038 
Q 1056 3838 1056 3469 
Q 1056 3159 1242 3001 
Q 1428 2844 1947 2747 
L 2328 2669 
Q 3034 2534 3370 2195 
Q 3706 1856 3706 1288 
Q 3706 609 3251 259 
Q 2797 -91 1919 -91 
Q 1588 -91 1214 -16 
Q 841 59 441 206 
L 441 856 
Q 825 641 1194 531 
Q 1563 422 1919 422 
Q 2459 422 2753 634 
Q 3047 847 3047 1241 
Q 3047 1584 2836 1778 
Q 2625 1972 2144 2069 
L 1759 2144 
Q 1053 2284 737 2584 
Q 422 2884 422 3419 
Q 422 4038 858 4394 
Q 1294 4750 2059 4750 
Q 2388 4750 2728 4690 
Q 3069 4631 3425 4513 
z
" transform="scale(0.015625)"/>
        <path id="DejaVuSans-4d" d="M 628 4666 
L 1569 4666 
L 2759 1491 
L 3956 4666 
L 4897 4666 
L 4897 0 
L 4281 0 
L 4281 4097 
L 3078 897 
L 2444 897 
L 1241 4097 
L 1241 0 
L 628 0 
L 628 4666 
z
" transform="scale(0.015625)"/>
       </defs>
       <use xlink:href="#DejaVuSans-53"/>
       <use xlink:href="#DejaVuSans-69" transform="translate(63.476562 0)"/>
       <use xlink:href="#DejaVuSans-65" transform="translate(91.259766 0)"/>
       <use xlink:href="#DejaVuSans-72" transform="translate(152.783203 0)"/>
       <use xlink:href="#DejaVuSans-72" transform="translate(192.146484 0)"/>
       <use xlink:href="#DejaVuSans-61" transform="translate(233.259766 0)"/>
       <use xlink:href="#DejaVuSans-20" transform="translate(294.539062 0)"/>
       <use xlink:href="#DejaVuSans-4d" transform="translate(326.326172 0)"/>
       <use xlink:href="#DejaVuSans-61" transform="translate(412.605469 0)"/>
       <use xlink:href="#DejaVuSans-64" transform="translate(473.884766 0)"/>
       <use xlink:href="#DejaVuSans-72" transform="translate(537.361328 0)"/>
       <use xlink:href="#DejaVuSans-65" transform="translate(576.224609 0)"/>
       <use xlink:href="#DejaVuSans-20" transform="translate(637.748047 0)"/>
       <use xlink:href="#DejaVuSans-42" transform="translate(669.535156 0)"/>
       <use xlink:href="#DejaVuSans-75" transform="translate(738.138672 0)"/>
       <use xlink:href="#DejaVuSans-72" transform="translate(801.517578 0)"/>
       <use xlink:href="#DejaVuSans-6e" transform="translate(840.880859 0)"/>
       <use xlink:href="#DejaVuSans-65" transform="translate(904.259766 0)"/>
       <use xlink:href="#DejaVuSans-64" transform="translate(965.783203 0)"/>
       <use xlink:href="#DejaVuSans-20" transform="translate(1029.259766 0)"/>
       <use xlink:href="#DejaVuSans-48" transform="translate(1061.046875 0)"/>
       <use xlink:href="#DejaVuSans-6f" transform="translate(1136.242188 0)"/>
       <use xlink:href="#DejaVuSans-75" transform="translate(1197.423828 0)"/>
       <use xlink:href="#DejaVuSans-73" transform="translate(1260.802734 0)"/>
       <use xlink:href="#DejaVuSans-65" transform="translate(1312.902344 0)"/>
      </g>
     </g>
    </g>
    <g id="xtick_12">
     <g id="line2d_12">
      <g>
       <use xlink:href="#m746e7a723f" x="468.916685" y="278.504705" style="stroke: #000000; stroke-width: 0.8"/>
      </g>
     </g>
     <g id="text_12">
      <!-- TCP Burned House - #4 -->
      <g transform="translate(384.779817 373.543918) rotate(-45) scale(0.1 -0.1)">
       <defs>
        <path id="DejaVuSans-54" d="M -19 4666 
L 3928 4666 
L 3928 4134 
L 2272 4134 
L 2272 0 
L 1638 0 
L 1638 4134 
L -19 4134 
L -19 4666 
z
" transform="scale(0.015625)"/>
        <path id="DejaVuSans-23" d="M 3272 2816 
L 2363 2816 
L 2100 1772 
L 3016 1772 
L 3272 2816 
z
M 2803 4594 
L 2478 3297 
L 3391 3297 
L 3719 4594 
L 4219 4594 
L 3897 3297 
L 4872 3297 
L 4872 2816 
L 3775 2816 
L 3519 1772 
L 4513 1772 
L 4513 1294 
L 3397 1294 
L 3072 0 
L 2572 0 
L 2894 1294 
L 1978 1294 
L 1656 0 
L 1153 0 
L 1478 1294 
L 494 1294 
L 494 1772 
L 1594 1772 
L 1856 2816 
L 850 2816 
L 850 3297 
L 1978 3297 
L 2297 4594 
L 2803 4594 
z
" transform="scale(0.015625)"/>
        <path id="DejaVuSans-34" d="M 2419 4116 
L 825 1625 
L 2419 1625 
L 2419 4116 
z
M 2253 4666 
L 3047 4666 
L 3047 1625 
L 3713 1625 
L 3713 1100 
L 3047 1100 
L 3047 0 
L 2419 0 
L 2419 1100 
L 313 1100 
L 313 1709 
L 2253 4666 
z
" transform="scale(0.015625)"/>
       </defs>
       <use xlink:href="#DejaVuSans-54"/>
       <use xlink:href="#DejaVuSans-43" transform="translate(55.208984 0)"/>
       <use xlink:href="#DejaVuSans-50" transform="translate(125.033203 0)"/>
       <use xlink:href="#DejaVuSans-20" transform="translate(185.335938 0)"/>
       <use xlink:href="#DejaVuSans-42" transform="translate(217.123047 0)"/>
       <use xlink:href="#DejaVuSans-75" transform="translate(285.726562 0)"/>
       <use xlink:href="#DejaVuSans-72" transform="translate(349.105469 0)"/>
       <use xlink:href="#DejaVuSans-6e" transform="translate(388.46875 0)"/>
       <use xlink:href="#DejaVuSans-65" transform="translate(451.847656 0)"/>
       <use xlink:href="#DejaVuSans-64" transform="translate(513.371094 0)"/>
       <use xlink:href="#DejaVuSans-20" transform="translate(576.847656 0)"/>
       <use xlink:href="#DejaVuSans-48" transform="translate(608.634766 0)"/>
       <use xlink:href="#DejaVuSans-6f" transform="translate(683.830078 0)"/>
       <use xlink:href="#DejaVuSans-75" transform="translate(745.011719 0)"/>
       <use xlink:href="#DejaVuSans-73" transform="translate(808.390625 0)"/>
       <use xlink:href="#DejaVuSans-65" transform="translate(860.490234 0)"/>
       <use xlink:href="#DejaVuSans-20" transform="translate(922.013672 0)"/>
       <use xlink:href="#DejaVuSans-2d" transform="translate(953.800781 0)"/>
       <use xlink:href="#DejaVuSans-20" transform="translate(989.884766 0)"/>
       <use xlink:href="#DejaVuSans-23" transform="translate(1021.671875 0)"/>
       <use xlink:href="#DejaVuSans-34" transform="translate(1105.460938 0)"/>
      </g>
     </g>
    </g>
    <g id="xtick_13">
     <g id="line2d_13">
      <g>
       <use xlink:href="#m746e7a723f" x="501.87736" y="278.504705" style="stroke: #000000; stroke-width: 0.8"/>
      </g>
     </g>
     <g id="text_13">
      <!-- TCP Burned House - #3 -->
      <g transform="translate(417.740491 373.543918) rotate(-45) scale(0.1 -0.1)">
       <defs>
        <path id="DejaVuSans-33" d="M 2597 2516 
Q 3050 2419 3304 2112 
Q 3559 1806 3559 1356 
Q 3559 666 3084 287 
Q 2609 -91 1734 -91 
Q 1441 -91 1130 -33 
Q 819 25 488 141 
L 488 750 
Q 750 597 1062 519 
Q 1375 441 1716 441 
Q 2309 441 2620 675 
Q 2931 909 2931 1356 
Q 2931 1769 2642 2001 
Q 2353 2234 1838 2234 
L 1294 2234 
L 1294 2753 
L 1863 2753 
Q 2328 2753 2575 2939 
Q 2822 3125 2822 3475 
Q 2822 3834 2567 4026 
Q 2313 4219 1838 4219 
Q 1578 4219 1281 4162 
Q 984 4106 628 3988 
L 628 4550 
Q 988 4650 1302 4700 
Q 1616 4750 1894 4750 
Q 2613 4750 3031 4423 
Q 3450 4097 3450 3541 
Q 3450 3153 3228 2886 
Q 3006 2619 2597 2516 
z
" transform="scale(0.015625)"/>
       </defs>
       <use xlink:href="#DejaVuSans-54"/>
       <use xlink:href="#DejaVuSans-43" transform="translate(55.208984 0)"/>
       <use xlink:href="#DejaVuSans-50" transform="translate(125.033203 0)"/>
       <use xlink:href="#DejaVuSans-20" transform="translate(185.335938 0)"/>
       <use xlink:href="#DejaVuSans-42" transform="translate(217.123047 0)"/>
       <use xlink:href="#DejaVuSans-75" transform="translate(285.726562 0)"/>
       <use xlink:href="#DejaVuSans-72" transform="translate(349.105469 0)"/>
       <use xlink:href="#DejaVuSans-6e" transform="translate(388.46875 0)"/>
       <use xlink:href="#DejaVuSans-65" transform="translate(451.847656 0)"/>
       <use xlink:href="#DejaVuSans-64" transform="translate(513.371094 0)"/>
       <use xlink:href="#DejaVuSans-20" transform="translate(576.847656 0)"/>
       <use xlink:href="#DejaVuSans-48" transform="translate(608.634766 0)"/>
       <use xlink:href="#DejaVuSans-6f" transform="translate(683.830078 0)"/>
       <use xlink:href="#DejaVuSans-75" transform="translate(745.011719 0)"/>
       <use xlink:href="#DejaVuSans-73" transform="translate(808.390625 0)"/>
       <use xlink:href="#DejaVuSans-65" transform="translate(860.490234 0)"/>
       <use xlink:href="#DejaVuSans-20" transform="translate(922.013672 0)"/>
       <use xlink:href="#DejaVuSans-2d" transform="translate(953.800781 0)"/>
       <use xlink:href="#DejaVuSans-20" transform="translate(989.884766 0)"/>
       <use xlink:href="#DejaVuSans-23" transform="translate(1021.671875 0)"/>
       <use xlink:href="#DejaVuSans-33" transform="translate(1105.460938 0)"/>
      </g>
     </g>
    </g>
    <g id="xtick_14">
     <g id="line2d_14">
      <g>
       <use xlink:href="#m746e7a723f" x="534.838034" y="278.504705" style="stroke: #000000; stroke-width: 0.8"/>
      </g>
     </g>
     <g id="text_14">
      <!-- Tuna Canyon Park - Flowers -->
      <g transform="translate(436.174541 388.070543) rotate(-45) scale(0.1 -0.1)">
       <defs>
        <path id="DejaVuSans-77" d="M 269 3500 
L 844 3500 
L 1563 769 
L 2278 3500 
L 2956 3500 
L 3675 769 
L 4391 3500 
L 4966 3500 
L 4050 0 
L 3372 0 
L 2619 2869 
L 1863 0 
L 1184 0 
L 269 3500 
z
" transform="scale(0.015625)"/>
       </defs>
       <use xlink:href="#DejaVuSans-54"/>
       <use xlink:href="#DejaVuSans-75" transform="translate(45.958984 0)"/>
       <use xlink:href="#DejaVuSans-6e" transform="translate(109.337891 0)"/>
       <use xlink:href="#DejaVuSans-61" transform="translate(172.716797 0)"/>
       <use xlink:href="#DejaVuSans-20" transform="translate(233.996094 0)"/>
       <use xlink:href="#DejaVuSans-43" transform="translate(265.783203 0)"/>
       <use xlink:href="#DejaVuSans-61" transform="translate(335.607422 0)"/>
       <use xlink:href="#DejaVuSans-6e" transform="translate(396.886719 0)"/>
       <use xlink:href="#DejaVuSans-79" transform="translate(460.265625 0)"/>
       <use xlink:href="#DejaVuSans-6f" transform="translate(519.445312 0)"/>
       <use xlink:href="#DejaVuSans-6e" transform="translate(580.626953 0)"/>
       <use xlink:href="#DejaVuSans-20" transform="translate(644.005859 0)"/>
       <use xlink:href="#DejaVuSans-50" transform="translate(675.792969 0)"/>
       <use xlink:href="#DejaVuSans-61" transform="translate(731.595703 0)"/>
       <use xlink:href="#DejaVuSans-72" transform="translate(792.875 0)"/>
       <use xlink:href="#DejaVuSans-6b" transform="translate(833.988281 0)"/>
       <use xlink:href="#DejaVuSans-20" transform="translate(891.898438 0)"/>
       <use xlink:href="#DejaVuSans-2d" transform="translate(923.685547 0)"/>
       <use xlink:href="#DejaVuSans-20" transform="translate(959.769531 0)"/>
       <use xlink:href="#DejaVuSans-46" transform="translate(991.556641 0)"/>
       <use xlink:href="#DejaVuSans-6c" transform="translate(1049.076172 0)"/>
       <use xlink:href="#DejaVuSans-6f" transform="translate(1076.859375 0)"/>
       <use xlink:href="#DejaVuSans-77" transform="translate(1138.041016 0)"/>
       <use xlink:href="#DejaVuSans-65" transform="translate(1219.828125 0)"/>
       <use xlink:href="#DejaVuSans-72" transform="translate(1281.351562 0)"/>
       <use xlink:href="#DejaVuSans-73" transform="translate(1322.464844 0)"/>
      </g>
     </g>
    </g>
    <g id="xtick_15">
     <g id="line2d_15">
      <g>
       <use xlink:href="#m746e7a723f" x="567.798708" y="278.504705" style="stroke: #000000; stroke-width: 0.8"/>
      </g>
     </g>
     <g id="text_15">
      <!-- Tuna Canyon Park - Trees -->
      <g transform="translate(477.808321 379.397437) rotate(-45) scale(0.1 -0.1)">
       <use xlink:href="#DejaVuSans-54"/>
       <use xlink:href="#DejaVuSans-75" transform="translate(45.958984 0)"/>
       <use xlink:href="#DejaVuSans-6e" transform="translate(109.337891 0)"/>
       <use xlink:href="#DejaVuSans-61" transform="translate(172.716797 0)"/>
       <use xlink:href="#DejaVuSans-20" transform="translate(233.996094 0)"/>
       <use xlink:href="#DejaVuSans-43" transform="translate(265.783203 0)"/>
       <use xlink:href="#DejaVuSans-61" transform="translate(335.607422 0)"/>
       <use xlink:href="#DejaVuSans-6e" transform="translate(396.886719 0)"/>
       <use xlink:href="#DejaVuSans-79" transform="translate(460.265625 0)"/>
       <use xlink:href="#DejaVuSans-6f" transform="translate(519.445312 0)"/>
       <use xlink:href="#DejaVuSans-6e" transform="translate(580.626953 0)"/>
       <use xlink:href="#DejaVuSans-20" transform="translate(644.005859 0)"/>
       <use xlink:href="#DejaVuSans-50" transform="translate(675.792969 0)"/>
       <use xlink:href="#DejaVuSans-61" transform="translate(731.595703 0)"/>
       <use xlink:href="#DejaVuSans-72" transform="translate(792.875 0)"/>
       <use xlink:href="#DejaVuSans-6b" transform="translate(833.988281 0)"/>
       <use xlink:href="#DejaVuSans-20" transform="translate(891.898438 0)"/>
       <use xlink:href="#DejaVuSans-2d" transform="translate(923.685547 0)"/>
       <use xlink:href="#DejaVuSans-20" transform="translate(959.769531 0)"/>
       <use xlink:href="#DejaVuSans-54" transform="translate(991.556641 0)"/>
       <use xlink:href="#DejaVuSans-72" transform="translate(1037.890625 0)"/>
       <use xlink:href="#DejaVuSans-65" transform="translate(1076.753906 0)"/>
       <use xlink:href="#DejaVuSans-65" transform="translate(1138.277344 0)"/>
       <use xlink:href="#DejaVuSans-73" transform="translate(1199.800781 0)"/>
      </g>
     </g>
    </g>
    <g id="xtick_16">
     <g id="line2d_16">
      <g>
       <use xlink:href="#m746e7a723f" x="600.759382" y="278.504705" style="stroke: #000000; stroke-width: 0.8"/>
      </g>
     </g>
     <g id="text_16">
      <!-- Temescal Gateway Park - River -->
      <g transform="translate(490.335819 399.830613) rotate(-45) scale(0.1 -0.1)">
       <defs>
        <path id="DejaVuSans-47" d="M 3809 666 
L 3809 1919 
L 2778 1919 
L 2778 2438 
L 4434 2438 
L 4434 434 
Q 4069 175 3628 42 
Q 3188 -91 2688 -91 
Q 1594 -91 976 548 
Q 359 1188 359 2328 
Q 359 3472 976 4111 
Q 1594 4750 2688 4750 
Q 3144 4750 3555 4637 
Q 3966 4525 4313 4306 
L 4313 3634 
Q 3963 3931 3569 4081 
Q 3175 4231 2741 4231 
Q 1884 4231 1454 3753 
Q 1025 3275 1025 2328 
Q 1025 1384 1454 906 
Q 1884 428 2741 428 
Q 3075 428 3337 486 
Q 3600 544 3809 666 
z
" transform="scale(0.015625)"/>
        <path id="DejaVuSans-52" d="M 2841 2188 
Q 3044 2119 3236 1894 
Q 3428 1669 3622 1275 
L 4263 0 
L 3584 0 
L 2988 1197 
Q 2756 1666 2539 1819 
Q 2322 1972 1947 1972 
L 1259 1972 
L 1259 0 
L 628 0 
L 628 4666 
L 2053 4666 
Q 2853 4666 3247 4331 
Q 3641 3997 3641 3322 
Q 3641 2881 3436 2590 
Q 3231 2300 2841 2188 
z
M 1259 4147 
L 1259 2491 
L 2053 2491 
Q 2509 2491 2742 2702 
Q 2975 2913 2975 3322 
Q 2975 3731 2742 3939 
Q 2509 4147 2053 4147 
L 1259 4147 
z
" transform="scale(0.015625)"/>
        <path id="DejaVuSans-76" d="M 191 3500 
L 800 3500 
L 1894 563 
L 2988 3500 
L 3597 3500 
L 2284 0 
L 1503 0 
L 191 3500 
z
" transform="scale(0.015625)"/>
       </defs>
       <use xlink:href="#DejaVuSans-54"/>
       <use xlink:href="#DejaVuSans-65" transform="translate(44.083984 0)"/>
       <use xlink:href="#DejaVuSans-6d" transform="translate(105.607422 0)"/>
       <use xlink:href="#DejaVuSans-65" transform="translate(203.019531 0)"/>
       <use xlink:href="#DejaVuSans-73" transform="translate(264.542969 0)"/>
       <use xlink:href="#DejaVuSans-63" transform="translate(316.642578 0)"/>
       <use xlink:href="#DejaVuSans-61" transform="translate(371.623047 0)"/>
       <use xlink:href="#DejaVuSans-6c" transform="translate(432.902344 0)"/>
       <use xlink:href="#DejaVuSans-20" transform="translate(460.685547 0)"/>
       <use xlink:href="#DejaVuSans-47" transform="translate(492.472656 0)"/>
       <use xlink:href="#DejaVuSans-61" transform="translate(569.962891 0)"/>
       <use xlink:href="#DejaVuSans-74" transform="translate(631.242188 0)"/>
       <use xlink:href="#DejaVuSans-65" transform="translate(670.451172 0)"/>
       <use xlink:href="#DejaVuSans-77" transform="translate(731.974609 0)"/>
       <use xlink:href="#DejaVuSans-61" transform="translate(813.761719 0)"/>
       <use xlink:href="#DejaVuSans-79" transform="translate(875.041016 0)"/>
       <use xlink:href="#DejaVuSans-20" transform="translate(934.220703 0)"/>
       <use xlink:href="#DejaVuSans-50" transform="translate(966.007812 0)"/>
       <use xlink:href="#DejaVuSans-61" transform="translate(1021.810547 0)"/>
       <use xlink:href="#DejaVuSans-72" transform="translate(1083.089844 0)"/>
       <use xlink:href="#DejaVuSans-6b" transform="translate(1124.203125 0)"/>
       <use xlink:href="#DejaVuSans-20" transform="translate(1182.113281 0)"/>
       <use xlink:href="#DejaVuSans-2d" transform="translate(1213.900391 0)"/>
       <use xlink:href="#DejaVuSans-20" transform="translate(1249.984375 0)"/>
       <use xlink:href="#DejaVuSans-52" transform="translate(1281.771484 0)"/>
       <use xlink:href="#DejaVuSans-69" transform="translate(1351.253906 0)"/>
       <use xlink:href="#DejaVuSans-76" transform="translate(1379.037109 0)"/>
       <use xlink:href="#DejaVuSans-65" transform="translate(1438.216797 0)"/>
       <use xlink:href="#DejaVuSans-72" transform="translate(1499.740234 0)"/>
      </g>
     </g>
    </g>
    <g id="xtick_17">
     <g id="line2d_17">
      <g>
       <use xlink:href="#m746e7a723f" x="633.720056" y="278.504705" style="stroke: #000000; stroke-width: 0.8"/>
      </g>
     </g>
     <g id="text_17">
      <!-- Temescal Gateway Park - Picnic -->
      <g transform="translate(521.326538 401.800568) rotate(-45) scale(0.1 -0.1)">
       <use xlink:href="#DejaVuSans-54"/>
       <use xlink:href="#DejaVuSans-65" transform="translate(44.083984 0)"/>
       <use xlink:href="#DejaVuSans-6d" transform="translate(105.607422 0)"/>
       <use xlink:href="#DejaVuSans-65" transform="translate(203.019531 0)"/>
       <use xlink:href="#DejaVuSans-73" transform="translate(264.542969 0)"/>
       <use xlink:href="#DejaVuSans-63" transform="translate(316.642578 0)"/>
       <use xlink:href="#DejaVuSans-61" transform="translate(371.623047 0)"/>
       <use xlink:href="#DejaVuSans-6c" transform="translate(432.902344 0)"/>
       <use xlink:href="#DejaVuSans-20" transform="translate(460.685547 0)"/>
       <use xlink:href="#DejaVuSans-47" transform="translate(492.472656 0)"/>
       <use xlink:href="#DejaVuSans-61" transform="translate(569.962891 0)"/>
       <use xlink:href="#DejaVuSans-74" transform="translate(631.242188 0)"/>
       <use xlink:href="#DejaVuSans-65" transform="translate(670.451172 0)"/>
       <use xlink:href="#DejaVuSans-77" transform="translate(731.974609 0)"/>
       <use xlink:href="#DejaVuSans-61" transform="translate(813.761719 0)"/>
       <use xlink:href="#DejaVuSans-79" transform="translate(875.041016 0)"/>
       <use xlink:href="#DejaVuSans-20" transform="translate(934.220703 0)"/>
       <use xlink:href="#DejaVuSans-50" transform="translate(966.007812 0)"/>
       <use xlink:href="#DejaVuSans-61" transform="translate(1021.810547 0)"/>
       <use xlink:href="#DejaVuSans-72" transform="translate(1083.089844 0)"/>
       <use xlink:href="#DejaVuSans-6b" transform="translate(1124.203125 0)"/>
       <use xlink:href="#DejaVuSans-20" transform="translate(1182.113281 0)"/>
       <use xlink:href="#DejaVuSans-2d" transform="translate(1213.900391 0)"/>
       <use xlink:href="#DejaVuSans-20" transform="translate(1249.984375 0)"/>
       <use xlink:href="#DejaVuSans-50" transform="translate(1281.771484 0)"/>
       <use xlink:href="#DejaVuSans-69" transform="translate(1339.824219 0)"/>
       <use xlink:href="#DejaVuSans-63" transform="translate(1367.607422 0)"/>
       <use xlink:href="#DejaVuSans-6e" transform="translate(1422.587891 0)"/>
       <use xlink:href="#DejaVuSans-69" transform="translate(1485.966797 0)"/>
       <use xlink:href="#DejaVuSans-63" transform="translate(1513.75 0)"/>
      </g>
     </g>
    </g>
    <g id="xtick_18">
     <g id="line2d_18">
      <g>
       <use xlink:href="#m746e7a723f" x="666.68073" y="278.504705" style="stroke: #000000; stroke-width: 0.8"/>
      </g>
     </g>
     <g id="text_18">
      <!-- Pacific Palisades - Neighborhood -->
      <g transform="translate(550.898624 405.189157) rotate(-45) scale(0.1 -0.1)">
       <defs>
        <path id="DejaVuSans-66" d="M 2375 4863 
L 2375 4384 
L 1825 4384 
Q 1516 4384 1395 4259 
Q 1275 4134 1275 3809 
L 1275 3500 
L 2222 3500 
L 2222 3053 
L 1275 3053 
L 1275 0 
L 697 0 
L 697 3053 
L 147 3053 
L 147 3500 
L 697 3500 
L 697 3744 
Q 697 4328 969 4595 
Q 1241 4863 1831 4863 
L 2375 4863 
z
" transform="scale(0.015625)"/>
       </defs>
       <use xlink:href="#DejaVuSans-50"/>
       <use xlink:href="#DejaVuSans-61" transform="translate(55.802734 0)"/>
       <use xlink:href="#DejaVuSans-63" transform="translate(117.082031 0)"/>
       <use xlink:href="#DejaVuSans-69" transform="translate(172.0625 0)"/>
       <use xlink:href="#DejaVuSans-66" transform="translate(199.845703 0)"/>
       <use xlink:href="#DejaVuSans-69" transform="translate(235.050781 0)"/>
       <use xlink:href="#DejaVuSans-63" transform="translate(262.833984 0)"/>
       <use xlink:href="#DejaVuSans-20" transform="translate(317.814453 0)"/>
       <use xlink:href="#DejaVuSans-50" transform="translate(349.601562 0)"/>
       <use xlink:href="#DejaVuSans-61" transform="translate(405.404297 0)"/>
       <use xlink:href="#DejaVuSans-6c" transform="translate(466.683594 0)"/>
       <use xlink:href="#DejaVuSans-69" transform="translate(494.466797 0)"/>
       <use xlink:href="#DejaVuSans-73" transform="translate(522.25 0)"/>
       <use xlink:href="#DejaVuSans-61" transform="translate(574.349609 0)"/>
       <use xlink:href="#DejaVuSans-64" transform="translate(635.628906 0)"/>
       <use xlink:href="#DejaVuSans-65" transform="translate(699.105469 0)"/>
       <use xlink:href="#DejaVuSans-73" transform="translate(760.628906 0)"/>
       <use xlink:href="#DejaVuSans-20" transform="translate(812.728516 0)"/>
       <use xlink:href="#DejaVuSans-2d" transform="translate(844.515625 0)"/>
       <use xlink:href="#DejaVuSans-20" transform="translate(880.599609 0)"/>
       <use xlink:href="#DejaVuSans-4e" transform="translate(912.386719 0)"/>
       <use xlink:href="#DejaVuSans-65" transform="translate(987.191406 0)"/>
       <use xlink:href="#DejaVuSans-69" transform="translate(1048.714844 0)"/>
       <use xlink:href="#DejaVuSans-67" transform="translate(1076.498047 0)"/>
       <use xlink:href="#DejaVuSans-68" transform="translate(1139.974609 0)"/>
       <use xlink:href="#DejaVuSans-62" transform="translate(1203.353516 0)"/>
       <use xlink:href="#DejaVuSans-6f" transform="translate(1266.830078 0)"/>
       <use xlink:href="#DejaVuSans-72" transform="translate(1328.011719 0)"/>
       <use xlink:href="#DejaVuSans-68" transform="translate(1367.375 0)"/>
       <use xlink:href="#DejaVuSans-6f" transform="translate(1430.753906 0)"/>
       <use xlink:href="#DejaVuSans-6f" transform="translate(1491.935547 0)"/>
       <use xlink:href="#DejaVuSans-64" transform="translate(1553.117188 0)"/>
      </g>
     </g>
    </g>
    <g id="text_19">
     <!-- Location -->
     <g transform="translate(365.366562 418.258155) scale(0.1 -0.1)">
      <use xlink:href="#DejaVuSans-4c"/>
      <use xlink:href="#DejaVuSans-6f" transform="translate(53.962891 0)"/>
      <use xlink:href="#DejaVuSans-63" transform="translate(115.144531 0)"/>
      <use xlink:href="#DejaVuSans-61" transform="translate(170.125 0)"/>
      <use xlink:href="#DejaVuSans-74" transform="translate(231.404297 0)"/>
      <use xlink:href="#DejaVuSans-69" transform="translate(270.613281 0)"/>
      <use xlink:href="#DejaVuSans-6f" transform="translate(298.396484 0)"/>
      <use xlink:href="#DejaVuSans-6e" transform="translate(359.578125 0)"/>
     </g>
    </g>
   </g>
   <g id="matplotlib.axis_2">
    <g id="ytick_1">
     <g id="line2d_19">
      <defs>
       <path id="m1ce0450e84" d="M 0 0 
L -3.5 0 
" style="stroke: #000000; stroke-width: 0.8"/>
      </defs>
      <g>
       <use xlink:href="#m1ce0450e84" x="63.83" y="278.504705" style="stroke: #000000; stroke-width: 0.8"/>
      </g>
     </g>
     <g id="text_20">
      <!-- 0 -->
      <g transform="translate(50.4675 282.303923) scale(0.1 -0.1)">
       <defs>
        <path id="DejaVuSans-30" d="M 2034 4250 
Q 1547 4250 1301 3770 
Q 1056 3291 1056 2328 
Q 1056 1369 1301 889 
Q 1547 409 2034 409 
Q 2525 409 2770 889 
Q 3016 1369 3016 2328 
Q 3016 3291 2770 3770 
Q 2525 4250 2034 4250 
z
M 2034 4750 
Q 2819 4750 3233 4129 
Q 3647 3509 3647 2328 
Q 3647 1150 3233 529 
Q 2819 -91 2034 -91 
Q 1250 -91 836 529 
Q 422 1150 422 2328 
Q 422 3509 836 4129 
Q 1250 4750 2034 4750 
z
" transform="scale(0.015625)"/>
       </defs>
       <use xlink:href="#DejaVuSans-30"/>
      </g>
     </g>
    </g>
    <g id="ytick_2">
     <g id="line2d_20">
      <g>
       <use xlink:href="#m1ce0450e84" x="63.83" y="223.458273" style="stroke: #000000; stroke-width: 0.8"/>
      </g>
     </g>
     <g id="text_21">
      <!-- 5000 -->
      <g transform="translate(31.38 227.257492) scale(0.1 -0.1)">
       <defs>
        <path id="DejaVuSans-35" d="M 691 4666 
L 3169 4666 
L 3169 4134 
L 1269 4134 
L 1269 2991 
Q 1406 3038 1543 3061 
Q 1681 3084 1819 3084 
Q 2600 3084 3056 2656 
Q 3513 2228 3513 1497 
Q 3513 744 3044 326 
Q 2575 -91 1722 -91 
Q 1428 -91 1123 -41 
Q 819 9 494 109 
L 494 744 
Q 775 591 1075 516 
Q 1375 441 1709 441 
Q 2250 441 2565 725 
Q 2881 1009 2881 1497 
Q 2881 1984 2565 2268 
Q 2250 2553 1709 2553 
Q 1456 2553 1204 2497 
Q 953 2441 691 2322 
L 691 4666 
z
" transform="scale(0.015625)"/>
       </defs>
       <use xlink:href="#DejaVuSans-35"/>
       <use xlink:href="#DejaVuSans-30" transform="translate(63.623047 0)"/>
       <use xlink:href="#DejaVuSans-30" transform="translate(127.246094 0)"/>
       <use xlink:href="#DejaVuSans-30" transform="translate(190.869141 0)"/>
      </g>
     </g>
    </g>
    <g id="ytick_3">
     <g id="line2d_21">
      <g>
       <use xlink:href="#m1ce0450e84" x="63.83" y="168.411842" style="stroke: #000000; stroke-width: 0.8"/>
      </g>
     </g>
     <g id="text_22">
      <!-- 10000 -->
      <g transform="translate(25.0175 172.211061) scale(0.1 -0.1)">
       <defs>
        <path id="DejaVuSans-31" d="M 794 531 
L 1825 531 
L 1825 4091 
L 703 3866 
L 703 4441 
L 1819 4666 
L 2450 4666 
L 2450 531 
L 3481 531 
L 3481 0 
L 794 0 
L 794 531 
z
" transform="scale(0.015625)"/>
       </defs>
       <use xlink:href="#DejaVuSans-31"/>
       <use xlink:href="#DejaVuSans-30" transform="translate(63.623047 0)"/>
       <use xlink:href="#DejaVuSans-30" transform="translate(127.246094 0)"/>
       <use xlink:href="#DejaVuSans-30" transform="translate(190.869141 0)"/>
       <use xlink:href="#DejaVuSans-30" transform="translate(254.492188 0)"/>
      </g>
     </g>
    </g>
    <g id="ytick_4">
     <g id="line2d_22">
      <g>
       <use xlink:href="#m1ce0450e84" x="63.83" y="113.365411" style="stroke: #000000; stroke-width: 0.8"/>
      </g>
     </g>
     <g id="text_23">
      <!-- 15000 -->
      <g transform="translate(25.0175 117.164629) scale(0.1 -0.1)">
       <use xlink:href="#DejaVuSans-31"/>
       <use xlink:href="#DejaVuSans-35" transform="translate(63.623047 0)"/>
       <use xlink:href="#DejaVuSans-30" transform="translate(127.246094 0)"/>
       <use xlink:href="#DejaVuSans-30" transform="translate(190.869141 0)"/>
       <use xlink:href="#DejaVuSans-30" transform="translate(254.492188 0)"/>
      </g>
     </g>
    </g>
    <g id="ytick_5">
     <g id="line2d_23">
      <g>
       <use xlink:href="#m1ce0450e84" x="63.83" y="58.318979" style="stroke: #000000; stroke-width: 0.8"/>
      </g>
     </g>
     <g id="text_24">
      <!-- 20000 -->
      <g transform="translate(25.0175 62.118198) scale(0.1 -0.1)">
       <defs>
        <path id="DejaVuSans-32" d="M 1228 531 
L 3431 531 
L 3431 0 
L 469 0 
L 469 531 
Q 828 903 1448 1529 
Q 2069 2156 2228 2338 
Q 2531 2678 2651 2914 
Q 2772 3150 2772 3378 
Q 2772 3750 2511 3984 
Q 2250 4219 1831 4219 
Q 1534 4219 1204 4116 
Q 875 4013 500 3803 
L 500 4441 
Q 881 4594 1212 4672 
Q 1544 4750 1819 4750 
Q 2544 4750 2975 4387 
Q 3406 4025 3406 3419 
Q 3406 3131 3298 2873 
Q 3191 2616 2906 2266 
Q 2828 2175 2409 1742 
Q 1991 1309 1228 531 
z
" transform="scale(0.015625)"/>
       </defs>
       <use xlink:href="#DejaVuSans-32"/>
       <use xlink:href="#DejaVuSans-30" transform="translate(63.623047 0)"/>
       <use xlink:href="#DejaVuSans-30" transform="translate(127.246094 0)"/>
       <use xlink:href="#DejaVuSans-30" transform="translate(190.869141 0)"/>
       <use xlink:href="#DejaVuSans-30" transform="translate(254.492188 0)"/>
      </g>
     </g>
    </g>
    <g id="text_25">
     <!-- Concentration (ppm) -->
     <g transform="translate(18.937812 204.052821) rotate(-90) scale(0.1 -0.1)">
      <defs>
       <path id="DejaVuSans-28" d="M 1984 4856 
Q 1566 4138 1362 3434 
Q 1159 2731 1159 2009 
Q 1159 1288 1364 580 
Q 1569 -128 1984 -844 
L 1484 -844 
Q 1016 -109 783 600 
Q 550 1309 550 2009 
Q 550 2706 781 3412 
Q 1013 4119 1484 4856 
L 1984 4856 
z
" transform="scale(0.015625)"/>
       <path id="DejaVuSans-70" d="M 1159 525 
L 1159 -1331 
L 581 -1331 
L 581 3500 
L 1159 3500 
L 1159 2969 
Q 1341 3281 1617 3432 
Q 1894 3584 2278 3584 
Q 2916 3584 3314 3078 
Q 3713 2572 3713 1747 
Q 3713 922 3314 415 
Q 2916 -91 2278 -91 
Q 1894 -91 1617 61 
Q 1341 213 1159 525 
z
M 3116 1747 
Q 3116 2381 2855 2742 
Q 2594 3103 2138 3103 
Q 1681 3103 1420 2742 
Q 1159 2381 1159 1747 
Q 1159 1113 1420 752 
Q 1681 391 2138 391 
Q 2594 391 2855 752 
Q 3116 1113 3116 1747 
z
" transform="scale(0.015625)"/>
       <path id="DejaVuSans-29" d="M 513 4856 
L 1013 4856 
Q 1481 4119 1714 3412 
Q 1947 2706 1947 2009 
Q 1947 1309 1714 600 
Q 1481 -109 1013 -844 
L 513 -844 
Q 928 -128 1133 580 
Q 1338 1288 1338 2009 
Q 1338 2731 1133 3434 
Q 928 4138 513 4856 
z
" transform="scale(0.015625)"/>
      </defs>
      <use xlink:href="#DejaVuSans-43"/>
      <use xlink:href="#DejaVuSans-6f" transform="translate(69.824219 0)"/>
      <use xlink:href="#DejaVuSans-6e" transform="translate(131.005859 0)"/>
      <use xlink:href="#DejaVuSans-63" transform="translate(194.384766 0)"/>
      <use xlink:href="#DejaVuSans-65" transform="translate(249.365234 0)"/>
      <use xlink:href="#DejaVuSans-6e" transform="translate(310.888672 0)"/>
      <use xlink:href="#DejaVuSans-74" transform="translate(374.267578 0)"/>
      <use xlink:href="#DejaVuSans-72" transform="translate(413.476562 0)"/>
      <use xlink:href="#DejaVuSans-61" transform="translate(454.589844 0)"/>
      <use xlink:href="#DejaVuSans-74" transform="translate(515.869141 0)"/>
      <use xlink:href="#DejaVuSans-69" transform="translate(555.078125 0)"/>
      <use xlink:href="#DejaVuSans-6f" transform="translate(582.861328 0)"/>
      <use xlink:href="#DejaVuSans-6e" transform="translate(644.042969 0)"/>
      <use xlink:href="#DejaVuSans-20" transform="translate(707.421875 0)"/>
      <use xlink:href="#DejaVuSans-28" transform="translate(739.208984 0)"/>
      <use xlink:href="#DejaVuSans-70" transform="translate(778.222656 0)"/>
      <use xlink:href="#DejaVuSans-70" transform="translate(841.699219 0)"/>
      <use xlink:href="#DejaVuSans-6d" transform="translate(905.175781 0)"/>
      <use xlink:href="#DejaVuSans-29" transform="translate(1002.587891 0)"/>
     </g>
    </g>
   </g>
   <g id="LineCollection_1">
    <path d="M 106.34927 214.069202 
L 106.34927 214.065503 
" clip-path="url(#p803215e909)" style="fill: none; stroke: #000000"/>
    <path d="M 139.309944 235.493007 
L 139.309944 235.489839 
" clip-path="url(#p803215e909)" style="fill: none; stroke: #000000"/>
    <path d="M 172.270618 77.664813 
L 172.270618 77.659777 
" clip-path="url(#p803215e909)" style="fill: none; stroke: #000000"/>
    <path d="M 205.231292 179.720379 
L 205.231292 179.716379 
" clip-path="url(#p803215e909)" style="fill: none; stroke: #000000"/>
    <path d="M 238.191966 208.817775 
L 238.191966 208.81407 
" clip-path="url(#p803215e909)" style="fill: none; stroke: #000000"/>
    <path d="M 271.15264 137.433987 
L 271.15264 137.429434 
" clip-path="url(#p803215e909)" style="fill: none; stroke: #000000"/>
    <path d="M 304.113315 150.62365 
L 304.113315 150.61802 
" clip-path="url(#p803215e909)" style="fill: none; stroke: #000000"/>
    <path d="M 337.073989 246.997653 
L 337.073989 246.994601 
" clip-path="url(#p803215e909)" style="fill: none; stroke: #000000"/>
    <path d="M 370.034663 278.506308 
L 370.034663 278.503102 
" clip-path="url(#p803215e909)" style="fill: none; stroke: #000000"/>
    <path d="M 402.995337 162.160822 
L 402.995337 162.156313 
" clip-path="url(#p803215e909)" style="fill: none; stroke: #000000"/>
    <path d="M 435.956011 238.113085 
L 435.956011 238.110181 
" clip-path="url(#p803215e909)" style="fill: none; stroke: #000000"/>
    <path d="M 468.916685 201.683926 
L 468.916685 201.679884 
" clip-path="url(#p803215e909)" style="fill: none; stroke: #000000"/>
    <path d="M 501.87736 190.74085 
L 501.87736 190.736499 
" clip-path="url(#p803215e909)" style="fill: none; stroke: #000000"/>
    <path d="M 534.838034 205.470978 
L 534.838034 205.467221 
" clip-path="url(#p803215e909)" style="fill: none; stroke: #000000"/>
    <path d="M 567.798708 124.377036 
L 567.798708 124.372357 
" clip-path="url(#p803215e909)" style="fill: none; stroke: #000000"/>
    <path d="M 600.759382 205.349904 
L 600.759382 205.346091 
" clip-path="url(#p803215e909)" style="fill: none; stroke: #000000"/>
    <path d="M 633.720056 87.276041 
L 633.720056 87.270763 
" clip-path="url(#p803215e909)" style="fill: none; stroke: #000000"/>
    <path d="M 666.68073 216.348109 
L 666.68073 216.34444 
" clip-path="url(#p803215e909)" style="fill: none; stroke: #000000"/>
   </g>
   <g id="line2d_24">
    <defs>
     <path id="mad913d1966" d="M 3.5 0 
L -3.5 -0 
" style="stroke: #000000"/>
    </defs>
    <g clip-path="url(#p803215e909)">
     <use xlink:href="#mad913d1966" x="106.34927" y="214.069202" style="fill: #1f77b4; stroke: #000000"/>
     <use xlink:href="#mad913d1966" x="139.309944" y="235.493007" style="fill: #1f77b4; stroke: #000000"/>
     <use xlink:href="#mad913d1966" x="172.270618" y="77.664813" style="fill: #1f77b4; stroke: #000000"/>
     <use xlink:href="#mad913d1966" x="205.231292" y="179.720379" style="fill: #1f77b4; stroke: #000000"/>
     <use xlink:href="#mad913d1966" x="238.191966" y="208.817775" style="fill: #1f77b4; stroke: #000000"/>
     <use xlink:href="#mad913d1966" x="271.15264" y="137.433987" style="fill: #1f77b4; stroke: #000000"/>
     <use xlink:href="#mad913d1966" x="304.113315" y="150.62365" style="fill: #1f77b4; stroke: #000000"/>
     <use xlink:href="#mad913d1966" x="337.073989" y="246.997653" style="fill: #1f77b4; stroke: #000000"/>
     <use xlink:href="#mad913d1966" x="370.034663" y="278.506308" style="fill: #1f77b4; stroke: #000000"/>
     <use xlink:href="#mad913d1966" x="402.995337" y="162.160822" style="fill: #1f77b4; stroke: #000000"/>
     <use xlink:href="#mad913d1966" x="435.956011" y="238.113085" style="fill: #1f77b4; stroke: #000000"/>
     <use xlink:href="#mad913d1966" x="468.916685" y="201.683926" style="fill: #1f77b4; stroke: #000000"/>
     <use xlink:href="#mad913d1966" x="501.87736" y="190.74085" style="fill: #1f77b4; stroke: #000000"/>
     <use xlink:href="#mad913d1966" x="534.838034" y="205.470978" style="fill: #1f77b4; stroke: #000000"/>
     <use xlink:href="#mad913d1966" x="567.798708" y="124.377036" style="fill: #1f77b4; stroke: #000000"/>
     <use xlink:href="#mad913d1966" x="600.759382" y="205.349904" style="fill: #1f77b4; stroke: #000000"/>
     <use xlink:href="#mad913d1966" x="633.720056" y="87.276041" style="fill: #1f77b4; stroke: #000000"/>
     <use xlink:href="#mad913d1966" x="666.68073" y="216.348109" style="fill: #1f77b4; stroke: #000000"/>
    </g>
   </g>
   <g id="line2d_25">
    <g clip-path="url(#p803215e909)">
     <use xlink:href="#mad913d1966" x="106.34927" y="214.065503" style="fill: #1f77b4; stroke: #000000"/>
     <use xlink:href="#mad913d1966" x="139.309944" y="235.489839" style="fill: #1f77b4; stroke: #000000"/>
     <use xlink:href="#mad913d1966" x="172.270618" y="77.659777" style="fill: #1f77b4; stroke: #000000"/>
     <use xlink:href="#mad913d1966" x="205.231292" y="179.716379" style="fill: #1f77b4; stroke: #000000"/>
     <use xlink:href="#mad913d1966" x="238.191966" y="208.81407" style="fill: #1f77b4; stroke: #000000"/>
     <use xlink:href="#mad913d1966" x="271.15264" y="137.429434" style="fill: #1f77b4; stroke: #000000"/>
     <use xlink:href="#mad913d1966" x="304.113315" y="150.61802" style="fill: #1f77b4; stroke: #000000"/>
     <use xlink:href="#mad913d1966" x="337.073989" y="246.994601" style="fill: #1f77b4; stroke: #000000"/>
     <use xlink:href="#mad913d1966" x="370.034663" y="278.503102" style="fill: #1f77b4; stroke: #000000"/>
     <use xlink:href="#mad913d1966" x="402.995337" y="162.156313" style="fill: #1f77b4; stroke: #000000"/>
     <use xlink:href="#mad913d1966" x="435.956011" y="238.110181" style="fill: #1f77b4; stroke: #000000"/>
     <use xlink:href="#mad913d1966" x="468.916685" y="201.679884" style="fill: #1f77b4; stroke: #000000"/>
     <use xlink:href="#mad913d1966" x="501.87736" y="190.736499" style="fill: #1f77b4; stroke: #000000"/>
     <use xlink:href="#mad913d1966" x="534.838034" y="205.467221" style="fill: #1f77b4; stroke: #000000"/>
     <use xlink:href="#mad913d1966" x="567.798708" y="124.372357" style="fill: #1f77b4; stroke: #000000"/>
     <use xlink:href="#mad913d1966" x="600.759382" y="205.346091" style="fill: #1f77b4; stroke: #000000"/>
     <use xlink:href="#mad913d1966" x="633.720056" y="87.270763" style="fill: #1f77b4; stroke: #000000"/>
     <use xlink:href="#mad913d1966" x="666.68073" y="216.34444" style="fill: #1f77b4; stroke: #000000"/>
    </g>
   </g>
   <g id="line2d_26">
    <path d="M 188.750955 278.504705 
L 188.750955 25.44 
" clip-path="url(#p803215e909)" style="fill: none; stroke-dasharray: 5.55,2.4; stroke-dashoffset: 0; stroke: #000000; stroke-width: 1.5"/>
   </g>
   <g id="line2d_27">
    <path d="M 353.554326 278.504705 
L 353.554326 25.44 
" clip-path="url(#p803215e909)" style="fill: none; stroke-dasharray: 5.55,2.4; stroke-dashoffset: 0; stroke: #000000; stroke-width: 1.5"/>
   </g>
   <g id="line2d_28">
    <path d="M 518.357697 278.504705 
L 518.357697 25.44 
" clip-path="url(#p803215e909)" style="fill: none; stroke-dasharray: 5.55,2.4; stroke-dashoffset: 0; stroke: #000000; stroke-width: 1.5"/>
   </g>
   <g id="patch_21">
    <path d="M 63.83 278.504705 
L 63.83 25.44 
" style="fill: none; stroke: #000000; stroke-width: 0.8; stroke-linejoin: miter; stroke-linecap: square"/>
   </g>
   <g id="patch_22">
    <path d="M 709.2 278.504705 
L 709.2 25.44 
" style="fill: none; stroke: #000000; stroke-width: 0.8; stroke-linejoin: miter; stroke-linecap: square"/>
   </g>
   <g id="patch_23">
    <path d="M 63.83 278.504705 
L 709.2 278.504705 
" style="fill: none; stroke: #000000; stroke-width: 0.8; stroke-linejoin: miter; stroke-linecap: square"/>
   </g>
   <g id="patch_24">
    <path d="M 63.83 25.44 
L 709.2 25.44 
" style="fill: none; stroke: #000000; stroke-width: 0.8; stroke-linejoin: miter; stroke-linecap: square"/>
   </g>
   <g id="text_26">
    <!-- Controls -->
    <g transform="translate(102.138754 45.102488) scale(0.12 -0.12)">
     <use xlink:href="#DejaVuSans-43"/>
     <use xlink:href="#DejaVuSans-6f" transform="translate(69.824219 0)"/>
     <use xlink:href="#DejaVuSans-6e" transform="translate(131.005859 0)"/>
     <use xlink:href="#DejaVuSans-74" transform="translate(194.384766 0)"/>
     <use xlink:href="#DejaVuSans-72" transform="translate(233.59375 0)"/>
     <use xlink:href="#DejaVuSans-6f" transform="translate(272.457031 0)"/>
     <use xlink:href="#DejaVuSans-6c" transform="translate(333.638672 0)"/>
     <use xlink:href="#DejaVuSans-73" transform="translate(361.421875 0)"/>
    </g>
   </g>
   <g id="text_27">
    <!-- San Gabriel Valley -->
    <g transform="translate(216.53014 45.102488) scale(0.12 -0.12)">
     <use xlink:href="#DejaVuSans-53"/>
     <use xlink:href="#DejaVuSans-61" transform="translate(63.476562 0)"/>
     <use xlink:href="#DejaVuSans-6e" transform="translate(124.755859 0)"/>
     <use xlink:href="#DejaVuSans-20" transform="translate(188.134766 0)"/>
     <use xlink:href="#DejaVuSans-47" transform="translate(219.921875 0)"/>
     <use xlink:href="#DejaVuSans-61" transform="translate(297.412109 0)"/>
     <use xlink:href="#DejaVuSans-62" transform="translate(358.691406 0)"/>
     <use xlink:href="#DejaVuSans-72" transform="translate(422.167969 0)"/>
     <use xlink:href="#DejaVuSans-69" transform="translate(463.28125 0)"/>
     <use xlink:href="#DejaVuSans-65" transform="translate(491.064453 0)"/>
     <use xlink:href="#DejaVuSans-6c" transform="translate(552.587891 0)"/>
     <use xlink:href="#DejaVuSans-20" transform="translate(580.371094 0)"/>
     <use xlink:href="#DejaVuSans-56" transform="translate(612.158203 0)"/>
     <use xlink:href="#DejaVuSans-61" transform="translate(672.816406 0)"/>
     <use xlink:href="#DejaVuSans-6c" transform="translate(734.095703 0)"/>
     <use xlink:href="#DejaVuSans-6c" transform="translate(761.878906 0)"/>
     <use xlink:href="#DejaVuSans-65" transform="translate(789.662109 0)"/>
     <use xlink:href="#DejaVuSans-79" transform="translate(851.185547 0)"/>
    </g>
    <!-- Playgrounds -->
    <g transform="translate(234.288265 58.539863) scale(0.12 -0.12)">
     <use xlink:href="#DejaVuSans-50"/>
     <use xlink:href="#DejaVuSans-6c" transform="translate(60.302734 0)"/>
     <use xlink:href="#DejaVuSans-61" transform="translate(88.085938 0)"/>
     <use xlink:href="#DejaVuSans-79" transform="translate(149.365234 0)"/>
     <use xlink:href="#DejaVuSans-67" transform="translate(208.544922 0)"/>
     <use xlink:href="#DejaVuSans-72" transform="translate(272.021484 0)"/>
     <use xlink:href="#DejaVuSans-6f" transform="translate(310.884766 0)"/>
     <use xlink:href="#DejaVuSans-75" transform="translate(372.066406 0)"/>
     <use xlink:href="#DejaVuSans-6e" transform="translate(435.445312 0)"/>
     <use xlink:href="#DejaVuSans-64" transform="translate(498.824219 0)"/>
     <use xlink:href="#DejaVuSans-73" transform="translate(562.300781 0)"/>
    </g>
   </g>
   <g id="text_28">
    <!-- Burned -->
    <g transform="translate(414.371949 45.102488) scale(0.12 -0.12)">
     <use xlink:href="#DejaVuSans-42"/>
     <use xlink:href="#DejaVuSans-75" transform="translate(68.603516 0)"/>
     <use xlink:href="#DejaVuSans-72" transform="translate(131.982422 0)"/>
     <use xlink:href="#DejaVuSans-6e" transform="translate(171.345703 0)"/>
     <use xlink:href="#DejaVuSans-65" transform="translate(234.724609 0)"/>
     <use xlink:href="#DejaVuSans-64" transform="translate(296.248047 0)"/>
    </g>
    <!-- Buildings -->
    <g transform="translate(408.490074 58.539863) scale(0.12 -0.12)">
     <use xlink:href="#DejaVuSans-42"/>
     <use xlink:href="#DejaVuSans-75" transform="translate(68.603516 0)"/>
     <use xlink:href="#DejaVuSans-69" transform="translate(131.982422 0)"/>
     <use xlink:href="#DejaVuSans-6c" transform="translate(159.765625 0)"/>
     <use xlink:href="#DejaVuSans-64" transform="translate(187.548828 0)"/>
     <use xlink:href="#DejaVuSans-69" transform="translate(251.025391 0)"/>
     <use xlink:href="#DejaVuSans-6e" transform="translate(278.808594 0)"/>
     <use xlink:href="#DejaVuSans-67" transform="translate(342.1875 0)"/>
     <use xlink:href="#DejaVuSans-73" transform="translate(405.664062 0)"/>
    </g>
   </g>
   <g id="text_29">
    <!-- Wildfire Affected -->
    <g transform="translate(559.394551 45.102488) scale(0.12 -0.12)">
     <use xlink:href="#DejaVuSans-57"/>
     <use xlink:href="#DejaVuSans-69" transform="translate(96.626953 0)"/>
     <use xlink:href="#DejaVuSans-6c" transform="translate(124.410156 0)"/>
     <use xlink:href="#DejaVuSans-64" transform="translate(152.193359 0)"/>
     <use xlink:href="#DejaVuSans-66" transform="translate(215.669922 0)"/>
     <use xlink:href="#DejaVuSans-69" transform="translate(250.875 0)"/>
     <use xlink:href="#DejaVuSans-72" transform="translate(278.658203 0)"/>
     <use xlink:href="#DejaVuSans-65" transform="translate(317.521484 0)"/>
     <use xlink:href="#DejaVuSans-20" transform="translate(379.044922 0)"/>
     <use xlink:href="#DejaVuSans-41" transform="translate(410.832031 0)"/>
     <use xlink:href="#DejaVuSans-66" transform="translate(475.615234 0)"/>
     <use xlink:href="#DejaVuSans-66" transform="translate(510.820312 0)"/>
     <use xlink:href="#DejaVuSans-65" transform="translate(546.025391 0)"/>
     <use xlink:href="#DejaVuSans-63" transform="translate(607.548828 0)"/>
     <use xlink:href="#DejaVuSans-74" transform="translate(662.529297 0)"/>
     <use xlink:href="#DejaVuSans-65" transform="translate(701.738281 0)"/>
     <use xlink:href="#DejaVuSans-64" transform="translate(763.261719 0)"/>
    </g>
    <!-- Park Areas -->
    <g transform="translate(577.196738 58.539863) scale(0.12 -0.12)">
     <use xlink:href="#DejaVuSans-50"/>
     <use xlink:href="#DejaVuSans-61" transform="translate(55.802734 0)"/>
     <use xlink:href="#DejaVuSans-72" transform="translate(117.082031 0)"/>
     <use xlink:href="#DejaVuSans-6b" transform="translate(158.195312 0)"/>
     <use xlink:href="#DejaVuSans-20" transform="translate(216.105469 0)"/>
     <use xlink:href="#DejaVuSans-41" transform="translate(247.892578 0)"/>
     <use xlink:href="#DejaVuSans-72" transform="translate(316.300781 0)"/>
     <use xlink:href="#DejaVuSans-65" transform="translate(355.164062 0)"/>
     <use xlink:href="#DejaVuSans-61" transform="translate(416.6875 0)"/>
     <use xlink:href="#DejaVuSans-73" transform="translate(477.966797 0)"/>
    </g>
   </g>
   <g id="text_30">
    <!-- Al2O3 Concentrations by Location -->
    <g transform="translate(271.563437 19.44) scale(0.12 -0.12)">
     <defs>
      <path id="DejaVuSans-Bold-41" d="M 3419 850 
L 1538 850 
L 1241 0 
L 31 0 
L 1759 4666 
L 3194 4666 
L 4922 0 
L 3713 0 
L 3419 850 
z
M 1838 1716 
L 3116 1716 
L 2478 3572 
L 1838 1716 
z
" transform="scale(0.015625)"/>
      <path id="DejaVuSans-Bold-6c" d="M 538 4863 
L 1656 4863 
L 1656 0 
L 538 0 
L 538 4863 
z
" transform="scale(0.015625)"/>
      <path id="DejaVuSans-Bold-32" d="M 1844 884 
L 3897 884 
L 3897 0 
L 506 0 
L 506 884 
L 2209 2388 
Q 2438 2594 2547 2791 
Q 2656 2988 2656 3200 
Q 2656 3528 2436 3728 
Q 2216 3928 1850 3928 
Q 1569 3928 1234 3808 
Q 900 3688 519 3450 
L 519 4475 
Q 925 4609 1322 4679 
Q 1719 4750 2100 4750 
Q 2938 4750 3402 4381 
Q 3866 4013 3866 3353 
Q 3866 2972 3669 2642 
Q 3472 2313 2841 1759 
L 1844 884 
z
" transform="scale(0.015625)"/>
      <path id="DejaVuSans-Bold-4f" d="M 2719 3878 
Q 2169 3878 1866 3472 
Q 1563 3066 1563 2328 
Q 1563 1594 1866 1187 
Q 2169 781 2719 781 
Q 3272 781 3575 1187 
Q 3878 1594 3878 2328 
Q 3878 3066 3575 3472 
Q 3272 3878 2719 3878 
z
M 2719 4750 
Q 3844 4750 4481 4106 
Q 5119 3463 5119 2328 
Q 5119 1197 4481 553 
Q 3844 -91 2719 -91 
Q 1597 -91 958 553 
Q 319 1197 319 2328 
Q 319 3463 958 4106 
Q 1597 4750 2719 4750 
z
" transform="scale(0.015625)"/>
      <path id="DejaVuSans-Bold-33" d="M 2981 2516 
Q 3453 2394 3698 2092 
Q 3944 1791 3944 1325 
Q 3944 631 3412 270 
Q 2881 -91 1863 -91 
Q 1503 -91 1142 -33 
Q 781 25 428 141 
L 428 1069 
Q 766 900 1098 814 
Q 1431 728 1753 728 
Q 2231 728 2486 893 
Q 2741 1059 2741 1369 
Q 2741 1688 2480 1852 
Q 2219 2016 1709 2016 
L 1228 2016 
L 1228 2791 
L 1734 2791 
Q 2188 2791 2409 2933 
Q 2631 3075 2631 3366 
Q 2631 3634 2415 3781 
Q 2200 3928 1806 3928 
Q 1516 3928 1219 3862 
Q 922 3797 628 3669 
L 628 4550 
Q 984 4650 1334 4700 
Q 1684 4750 2022 4750 
Q 2931 4750 3382 4451 
Q 3834 4153 3834 3553 
Q 3834 3144 3618 2883 
Q 3403 2622 2981 2516 
z
" transform="scale(0.015625)"/>
      <path id="DejaVuSans-Bold-20" transform="scale(0.015625)"/>
      <path id="DejaVuSans-Bold-43" d="M 4288 256 
Q 3956 84 3597 -3 
Q 3238 -91 2847 -91 
Q 1681 -91 1000 561 
Q 319 1213 319 2328 
Q 319 3447 1000 4098 
Q 1681 4750 2847 4750 
Q 3238 4750 3597 4662 
Q 3956 4575 4288 4403 
L 4288 3438 
Q 3953 3666 3628 3772 
Q 3303 3878 2944 3878 
Q 2300 3878 1931 3465 
Q 1563 3053 1563 2328 
Q 1563 1606 1931 1193 
Q 2300 781 2944 781 
Q 3303 781 3628 887 
Q 3953 994 4288 1222 
L 4288 256 
z
" transform="scale(0.015625)"/>
      <path id="DejaVuSans-Bold-6f" d="M 2203 2784 
Q 1831 2784 1636 2517 
Q 1441 2250 1441 1747 
Q 1441 1244 1636 976 
Q 1831 709 2203 709 
Q 2569 709 2762 976 
Q 2956 1244 2956 1747 
Q 2956 2250 2762 2517 
Q 2569 2784 2203 2784 
z
M 2203 3584 
Q 3106 3584 3614 3096 
Q 4122 2609 4122 1747 
Q 4122 884 3614 396 
Q 3106 -91 2203 -91 
Q 1297 -91 786 396 
Q 275 884 275 1747 
Q 275 2609 786 3096 
Q 1297 3584 2203 3584 
z
" transform="scale(0.015625)"/>
      <path id="DejaVuSans-Bold-6e" d="M 4056 2131 
L 4056 0 
L 2931 0 
L 2931 347 
L 2931 1631 
Q 2931 2084 2911 2256 
Q 2891 2428 2841 2509 
Q 2775 2619 2662 2680 
Q 2550 2741 2406 2741 
Q 2056 2741 1856 2470 
Q 1656 2200 1656 1722 
L 1656 0 
L 538 0 
L 538 3500 
L 1656 3500 
L 1656 2988 
Q 1909 3294 2193 3439 
Q 2478 3584 2822 3584 
Q 3428 3584 3742 3212 
Q 4056 2841 4056 2131 
z
" transform="scale(0.015625)"/>
      <path id="DejaVuSans-Bold-63" d="M 3366 3391 
L 3366 2478 
Q 3138 2634 2908 2709 
Q 2678 2784 2431 2784 
Q 1963 2784 1702 2511 
Q 1441 2238 1441 1747 
Q 1441 1256 1702 982 
Q 1963 709 2431 709 
Q 2694 709 2930 787 
Q 3166 866 3366 1019 
L 3366 103 
Q 3103 6 2833 -42 
Q 2563 -91 2291 -91 
Q 1344 -91 809 395 
Q 275 881 275 1747 
Q 275 2613 809 3098 
Q 1344 3584 2291 3584 
Q 2566 3584 2833 3536 
Q 3100 3488 3366 3391 
z
" transform="scale(0.015625)"/>
      <path id="DejaVuSans-Bold-65" d="M 4031 1759 
L 4031 1441 
L 1416 1441 
Q 1456 1047 1700 850 
Q 1944 653 2381 653 
Q 2734 653 3104 758 
Q 3475 863 3866 1075 
L 3866 213 
Q 3469 63 3072 -14 
Q 2675 -91 2278 -91 
Q 1328 -91 801 392 
Q 275 875 275 1747 
Q 275 2603 792 3093 
Q 1309 3584 2216 3584 
Q 3041 3584 3536 3087 
Q 4031 2591 4031 1759 
z
M 2881 2131 
Q 2881 2450 2695 2645 
Q 2509 2841 2209 2841 
Q 1884 2841 1681 2658 
Q 1478 2475 1428 2131 
L 2881 2131 
z
" transform="scale(0.015625)"/>
      <path id="DejaVuSans-Bold-74" d="M 1759 4494 
L 1759 3500 
L 2913 3500 
L 2913 2700 
L 1759 2700 
L 1759 1216 
Q 1759 972 1856 886 
Q 1953 800 2241 800 
L 2816 800 
L 2816 0 
L 1856 0 
Q 1194 0 917 276 
Q 641 553 641 1216 
L 641 2700 
L 84 2700 
L 84 3500 
L 641 3500 
L 641 4494 
L 1759 4494 
z
" transform="scale(0.015625)"/>
      <path id="DejaVuSans-Bold-72" d="M 3138 2547 
Q 2991 2616 2845 2648 
Q 2700 2681 2553 2681 
Q 2122 2681 1889 2404 
Q 1656 2128 1656 1613 
L 1656 0 
L 538 0 
L 538 3500 
L 1656 3500 
L 1656 2925 
Q 1872 3269 2151 3426 
Q 2431 3584 2822 3584 
Q 2878 3584 2943 3579 
Q 3009 3575 3134 3559 
L 3138 2547 
z
" transform="scale(0.015625)"/>
      <path id="DejaVuSans-Bold-61" d="M 2106 1575 
Q 1756 1575 1579 1456 
Q 1403 1338 1403 1106 
Q 1403 894 1545 773 
Q 1688 653 1941 653 
Q 2256 653 2472 879 
Q 2688 1106 2688 1447 
L 2688 1575 
L 2106 1575 
z
M 3816 1997 
L 3816 0 
L 2688 0 
L 2688 519 
Q 2463 200 2181 54 
Q 1900 -91 1497 -91 
Q 953 -91 614 226 
Q 275 544 275 1050 
Q 275 1666 698 1953 
Q 1122 2241 2028 2241 
L 2688 2241 
L 2688 2328 
Q 2688 2594 2478 2717 
Q 2269 2841 1825 2841 
Q 1466 2841 1156 2769 
Q 847 2697 581 2553 
L 581 3406 
Q 941 3494 1303 3539 
Q 1666 3584 2028 3584 
Q 2975 3584 3395 3211 
Q 3816 2838 3816 1997 
z
" transform="scale(0.015625)"/>
      <path id="DejaVuSans-Bold-69" d="M 538 3500 
L 1656 3500 
L 1656 0 
L 538 0 
L 538 3500 
z
M 538 4863 
L 1656 4863 
L 1656 3950 
L 538 3950 
L 538 4863 
z
" transform="scale(0.015625)"/>
      <path id="DejaVuSans-Bold-73" d="M 3272 3391 
L 3272 2541 
Q 2913 2691 2578 2766 
Q 2244 2841 1947 2841 
Q 1628 2841 1473 2761 
Q 1319 2681 1319 2516 
Q 1319 2381 1436 2309 
Q 1553 2238 1856 2203 
L 2053 2175 
Q 2913 2066 3209 1816 
Q 3506 1566 3506 1031 
Q 3506 472 3093 190 
Q 2681 -91 1863 -91 
Q 1516 -91 1145 -36 
Q 775 19 384 128 
L 384 978 
Q 719 816 1070 734 
Q 1422 653 1784 653 
Q 2113 653 2278 743 
Q 2444 834 2444 1013 
Q 2444 1163 2330 1236 
Q 2216 1309 1875 1350 
L 1678 1375 
Q 931 1469 631 1722 
Q 331 1975 331 2491 
Q 331 3047 712 3315 
Q 1094 3584 1881 3584 
Q 2191 3584 2531 3537 
Q 2872 3491 3272 3391 
z
" transform="scale(0.015625)"/>
      <path id="DejaVuSans-Bold-62" d="M 2400 722 
Q 2759 722 2948 984 
Q 3138 1247 3138 1747 
Q 3138 2247 2948 2509 
Q 2759 2772 2400 2772 
Q 2041 2772 1848 2508 
Q 1656 2244 1656 1747 
Q 1656 1250 1848 986 
Q 2041 722 2400 722 
z
M 1656 2988 
Q 1888 3294 2169 3439 
Q 2450 3584 2816 3584 
Q 3463 3584 3878 3070 
Q 4294 2556 4294 1747 
Q 4294 938 3878 423 
Q 3463 -91 2816 -91 
Q 2450 -91 2169 54 
Q 1888 200 1656 506 
L 1656 0 
L 538 0 
L 538 4863 
L 1656 4863 
L 1656 2988 
z
" transform="scale(0.015625)"/>
      <path id="DejaVuSans-Bold-79" d="M 78 3500 
L 1197 3500 
L 2138 1125 
L 2938 3500 
L 4056 3500 
L 2584 -331 
Q 2363 -916 2067 -1148 
Q 1772 -1381 1288 -1381 
L 641 -1381 
L 641 -647 
L 991 -647 
Q 1275 -647 1404 -556 
Q 1534 -466 1606 -231 
L 1638 -134 
L 78 3500 
z
" transform="scale(0.015625)"/>
      <path id="DejaVuSans-Bold-4c" d="M 588 4666 
L 1791 4666 
L 1791 909 
L 3903 909 
L 3903 0 
L 588 0 
L 588 4666 
z
" transform="scale(0.015625)"/>
     </defs>
     <use xlink:href="#DejaVuSans-Bold-41"/>
     <use xlink:href="#DejaVuSans-Bold-6c" transform="translate(77.392578 0)"/>
     <use xlink:href="#DejaVuSans-Bold-32" transform="translate(111.669922 0)"/>
     <use xlink:href="#DejaVuSans-Bold-4f" transform="translate(181.25 0)"/>
     <use xlink:href="#DejaVuSans-Bold-33" transform="translate(266.259766 0)"/>
     <use xlink:href="#DejaVuSans-Bold-20" transform="translate(335.839844 0)"/>
     <use xlink:href="#DejaVuSans-Bold-43" transform="translate(370.654297 0)"/>
     <use xlink:href="#DejaVuSans-Bold-6f" transform="translate(444.042969 0)"/>
     <use xlink:href="#DejaVuSans-Bold-6e" transform="translate(512.744141 0)"/>
     <use xlink:href="#DejaVuSans-Bold-63" transform="translate(583.935547 0)"/>
     <use xlink:href="#DejaVuSans-Bold-65" transform="translate(643.212891 0)"/>
     <use xlink:href="#DejaVuSans-Bold-6e" transform="translate(711.035156 0)"/>
     <use xlink:href="#DejaVuSans-Bold-74" transform="translate(782.226562 0)"/>
     <use xlink:href="#DejaVuSans-Bold-72" transform="translate(830.029297 0)"/>
     <use xlink:href="#DejaVuSans-Bold-61" transform="translate(879.345703 0)"/>
     <use xlink:href="#DejaVuSans-Bold-74" transform="translate(946.826172 0)"/>
     <use xlink:href="#DejaVuSans-Bold-69" transform="translate(994.628906 0)"/>
     <use xlink:href="#DejaVuSans-Bold-6f" transform="translate(1028.90625 0)"/>
     <use xlink:href="#DejaVuSans-Bold-6e" transform="translate(1097.607422 0)"/>
     <use xlink:href="#DejaVuSans-Bold-73" transform="translate(1168.798828 0)"/>
     <use xlink:href="#DejaVuSans-Bold-20" transform="translate(1228.320312 0)"/>
     <use xlink:href="#DejaVuSans-Bold-62" transform="translate(1263.134766 0)"/>
     <use xlink:href="#DejaVuSans-Bold-79" transform="translate(1334.716797 0)"/>
     <use xlink:href="#DejaVuSans-Bold-20" transform="translate(1399.902344 0)"/>
     <use xlink:href="#DejaVuSans-Bold-4c" transform="translate(1434.716797 0)"/>
     <use xlink:href="#DejaVuSans-Bold-6f" transform="translate(1498.4375 0)"/>
     <use xlink:href="#DejaVuSans-Bold-63" transform="translate(1567.138672 0)"/>
     <use xlink:href="#DejaVuSans-Bold-61" transform="translate(1626.416016 0)"/>
     <use xlink:href="#DejaVuSans-Bold-74" transform="translate(1693.896484 0)"/>
     <use xlink:href="#DejaVuSans-Bold-69" transform="translate(1741.699219 0)"/>
     <use xlink:href="#DejaVuSans-Bold-6f" transform="translate(1775.976562 0)"/>
     <use xlink:href="#DejaVuSans-Bold-6e" transform="translate(1844.677734 0)"/>
    </g>
   </g>
  </g>
 </g>
 <defs>
  <clipPath id="p803215e909">
   <rect x="63.83" y="25.44" width="645.37" height="253.064705"/>
  </clipPath>
 </defs>
</svg>
