<svg width="550" height="456.8000183105469" version="1.1" xmlns="http://www.w3.org/2000/svg" style="width: 830.8px; height: 456.8px;"><g transform="translate(83.61592160870163,95.54578354732692) scale(0.8600000000000002)"><path class="link" d="M369.99999999999994,288.8381100609189L369.99999999999994,280.3428715297154L369.99999999999994,280.3428715297154" id="node_8096:node_4933" style="fill: none; stroke-width: 3; stroke: grey; cursor: pointer;"></path><path class="link" d="M369.99999999999994,288.8381100609189L369.99999999999994,297.3333485921224L369.99999999999994,297.3333485921224" id="node_8096:node_1583" style="fill: none; stroke-width: 3; stroke: grey; cursor: pointer;"></path><path class="link" d="M369.99999999999994,301.58096785772415L369.99999999999994,288.8381100609189L369.99999999999994,288.8381100609189" id="node_4316:node_8096" style="fill: none; stroke-width: 3; stroke: grey; cursor: pointer;"></path><path class="link" d="M369.99999999999994,301.58096785772415L369.99999999999994,314.3238256545294L369.99999999999994,314.3238256545294" id="node_4316:node_8450" style="fill: none; stroke-width: 3; stroke: grey; cursor: pointer;"></path><path class="link" d="M240.888766433126,316.4476352873303L240.888766433126,301.58096785772415L369.99999999999994,301.58096785772415" id="node_7273:node_4316" style="fill: none; stroke-width: 3; stroke: grey; cursor: pointer;"></path><path class="link" d="M240.888766433126,316.4476352873303L240.888766433126,331.3143027169364L323.68416909391476,331.3143027169364" id="node_7273:node_8183" style="fill: none; stroke-width: 3; stroke: grey; cursor: pointer;"></path><path class="link" d="M284.00850192867824,254.85715593610493L284.00850192867824,246.36191740490142L284.00850192867824,246.36191740490142" id="node_3465:node_6286" style="fill: none; stroke-width: 3; stroke: grey; cursor: pointer;"></path><path class="link" d="M284.00850192867824,254.85715593610493L284.00850192867824,263.35239446730844L284.00850192867824,263.35239446730844" id="node_3465:node_3942" style="fill: none; stroke-width: 3; stroke: grey; cursor: pointer;"></path><path class="link" d="M178.482248287806,285.6523956117176L178.482248287806,254.85715593610493L284.00850192867824,254.85715593610493" id="node_4409:node_3465" style="fill: none; stroke-width: 3; stroke: grey; cursor: pointer;"></path><path class="link" d="M178.482248287806,285.6523956117176L178.482248287806,316.4476352873303L240.888766433126,316.4476352873303" id="node_4409:node_7273" style="fill: none; stroke-width: 3; stroke: grey; cursor: pointer;"></path><path class="link" d="M169.74809100212548,316.9785876955305L169.74809100212548,285.6523956117176L178.482248287806,285.6523956117176" id="node_9386:node_4409" style="fill: none; stroke-width: 3; stroke: grey; cursor: pointer;"></path><path class="link" d="M169.74809100212548,316.9785876955305L169.74809100212548,348.3047797793434L312.33251987719433,348.3047797793434" id="node_9386:node_7779" style="fill: none; stroke-width: 3; stroke: grey; cursor: pointer;"></path><path class="link" d="M263.42674958671176,220.87620181129094L263.42674958671176,212.38096328008743L263.42674958671176,212.38096328008743" id="node_9542:node_4303" style="fill: none; stroke-width: 3; stroke: grey; cursor: pointer;"></path><path class="link" d="M263.42674958671176,220.87620181129094L263.42674958671176,229.37144034249445L263.42674958671176,229.37144034249445" id="node_9542:node_2437" style="fill: none; stroke-width: 3; stroke: grey; cursor: pointer;"></path><path class="link" d="M144.37219554435958,268.92739475341074L144.37219554435958,220.87620181129094L263.42674958671176,220.87620181129094" id="node_1192:node_9542" style="fill: none; stroke-width: 3; stroke: grey; cursor: pointer;"></path><path class="link" d="M144.37219554435958,268.92739475341074L144.37219554435958,316.9785876955305L169.74809100212548,316.9785876955305" id="node_1192:node_9386" style="fill: none; stroke-width: 3; stroke: grey; cursor: pointer;"></path><path class="link" d="M176.3055971030465,186.89524768647695L176.3055971030465,178.40000915527344L245.57269936235534,178.40000915527344" id="node_8501:node_1645" style="fill: none; stroke-width: 3; stroke: grey; cursor: pointer;"></path><path class="link" d="M176.3055971030465,186.89524768647695L176.3055971030465,195.39048621768046L245.95843501535066,195.39048621768046" id="node_8501:node_9687" style="fill: none; stroke-width: 3; stroke: grey; cursor: pointer;"></path><path class="link" d="M167.02038888451546,174.15238988967172L167.02038888451546,161.40953209286647L264.69416673226795,161.40953209286647" id="node_2468:node_4337" style="fill: none; stroke-width: 3; stroke: grey; cursor: pointer;"></path><path class="link" d="M167.02038888451546,174.15238988967172L167.02038888451546,186.89524768647695L176.3055971030465,186.89524768647695" id="node_2468:node_8501" style="fill: none; stroke-width: 3; stroke: grey; cursor: pointer;"></path><path class="link" d="M177.32504132881994,135.92381649925596L177.32504132881994,127.42857796805247L220.11414626466185,127.42857796805247" id="node_2298:node_7953" style="fill: none; stroke-width: 3; stroke: grey; cursor: pointer;"></path><path class="link" d="M177.32504132881994,135.92381649925596L177.32504132881994,144.41905503045945L260.2306541761788,144.41905503045945" id="node_2298:node_3409" style="fill: none; stroke-width: 3; stroke: grey; cursor: pointer;"></path><path class="link" d="M156.770841533496,155.03810319446384L156.770841533496,135.92381649925596L177.32504132881994,135.92381649925596" id="node_4873:node_2298" style="fill: none; stroke-width: 3; stroke: grey; cursor: pointer;"></path><path class="link" d="M156.770841533496,155.03810319446384L156.770841533496,174.15238988967172L167.02038888451546,174.15238988967172" id="node_4873:node_2468" style="fill: none; stroke-width: 3; stroke: grey; cursor: pointer;"></path><path class="link" d="M128.4192710383374,211.9827489739373L128.4192710383374,155.03810319446384L156.770841533496,155.03810319446384" id="node_6118:node_4873" style="fill: none; stroke-width: 3; stroke: grey; cursor: pointer;"></path><path class="link" d="M128.4192710383374,211.9827489739373L128.4192710383374,268.92739475341074L144.37219554435958,268.92739475341074" id="node_6118:node_1192" style="fill: none; stroke-width: 3; stroke: grey; cursor: pointer;"></path><path class="link" d="M104.86184365897817,161.21042493979138L104.86184365897817,110.43810090564547L201.9294654805951,110.43810090564547" id="node_2179:node_9788" style="fill: none; stroke-width: 3; stroke: grey; cursor: pointer;"></path><path class="link" d="M104.86184365897817,161.21042493979138L104.86184365897817,211.9827489739373L128.4192710383374,211.9827489739373" id="node_2179:node_6118" style="fill: none; stroke-width: 3; stroke: grey; cursor: pointer;"></path><path class="link" d="M252.76391403605444,67.96190824962798L252.76391403605444,59.466669718424484L252.76391403605444,59.466669718424484" id="node_3210:node_6845" style="fill: none; stroke-width: 3; stroke: grey; cursor: pointer;"></path><path class="link" d="M252.76391403605444,67.96190824962798L252.76391403605444,76.45714678083148L252.76391403605444,76.45714678083148" id="node_3210:node_3730" style="fill: none; stroke-width: 3; stroke: grey; cursor: pointer;"></path><path class="link" d="M252.76391403605444,80.70476604643324L252.76391403605444,67.96190824962798L252.76391403605444,67.96190824962798" id="node_2508:node_3210" style="fill: none; stroke-width: 3; stroke: grey; cursor: pointer;"></path><path class="link" d="M252.76391403605444,80.70476604643324L252.76391403605444,93.44762384323847L252.76391403605444,93.44762384323847" id="node_2508:node_6147" style="fill: none; stroke-width: 3; stroke: grey; cursor: pointer;"></path><path class="link" d="M88.8262615130284,120.95759549311231L88.8262615130284,80.70476604643324L252.76391403605444,80.70476604643324" id="node_1546:node_2508" style="fill: none; stroke-width: 3; stroke: grey; cursor: pointer;"></path><path class="link" d="M88.8262615130284,120.95759549311231L88.8262615130284,161.21042493979138L104.86184365897817,161.21042493979138" id="node_1546:node_2179" style="fill: none; stroke-width: 3; stroke: grey; cursor: pointer;"></path><path class="link" d="M29.230103125245996,81.71689407456489L29.230103125245996,42.47619265601749L126.02219948043768,42.47619265601749" id="node_1986:node_1340" style="fill: none; stroke-width: 3; stroke: grey; cursor: pointer;"></path><path class="link" d="M29.230103125245996,81.71689407456489L29.230103125245996,120.95759549311231L88.8262615130284,120.95759549311231" id="node_1986:node_1546" style="fill: none; stroke-width: 3; stroke: grey; cursor: pointer;"></path><path class="link" d="M254.55482956781862,16.990477062406995L254.55482956781862,8.495238531203498L264.69416673226795,8.495238531203498" id="node_4088:node_3951" style="fill: none; stroke-width: 3; stroke: grey; cursor: pointer;"></path><path class="link" d="M254.55482956781862,16.990477062406995L254.55482956781862,25.485715593610493L254.55482956781862,25.485715593610493" id="node_4088:node_9443" style="fill: none; stroke-width: 3; stroke: grey; cursor: pointer;"></path><path class="link" d="M20,49.35368556848594L20,16.990477062406995L254.55482956781862,16.990477062406995" id="node_6650:node_4088" style="fill: none; stroke-width: 3; stroke: grey; cursor: pointer;"></path><path class="link" d="M20,49.35368556848594L20,81.71689407456489L29.230103125245996,81.71689407456489" id="node_6650:node_1986" style="fill: none; stroke-width: 3; stroke: grey; cursor: pointer;"></path><g class="node" transform="translate(312.33251953125,348.3047790527344)" id="node_7779" style="cursor: crosshair;"><circle class="node" r="4" style="fill: black;"></circle><rect class="node" y="-4px" x="-4px" width="0px" height="0px" style="stroke-width: 2px; stroke: black;"></rect><text x="13" dy=".3em" dx="-.3em" text-anchor="start" font-size="14px" style="fill-opacity: 1; font-family: sans-serif; font-weight: normal; fill: black;">11_JN166852_1_Echinopsis_lageniformis_voucher_A_R__Franck_2635__USF__Na_/H__antiporter__NHX__gene__partial_cds</text><text class="triangleText" dy=".35em" font-size="14px" style="fill-opacity: 1e-06; font-family: sans-serif;"></text><path d="M0,0L0,0L0,0L0,0"></path></g><g class="node" transform="translate(323.6841735839844,331.3143005371094)" id="node_8183" style="cursor: crosshair;"><circle class="node" r="4" style="fill: black;"></circle><rect class="node" y="-4px" x="-4px" width="0px" height="0px" style="stroke-width: 2px; stroke: black;"></rect><text x="13" dy=".3em" dx="-.3em" text-anchor="start" font-size="14px" style="fill-opacity: 1; font-family: sans-serif; font-weight: normal; fill: black;">12_JN166894_1_Echinopsis_lageniformis_voucher_A_R__Franck_2635__USF__atpB-rbcL_intergenic_spacer__partial_sequence__plastid</text><text class="triangleText" dy=".35em" font-size="14px" style="fill-opacity: 1e-06; font-family: sans-serif;"></text><path d="M0,0L0,0L0,0L0,0"></path></g><g class="node" transform="translate(370,314.3238220214844)" id="node_8450" style="cursor: crosshair;"><circle class="node" r="4" style="fill: black;"></circle><rect class="node" y="-4px" x="-4px" width="0px" height="0px" style="stroke-width: 2px; stroke: black;"></rect><text x="13" dy=".3em" dx="-.3em" text-anchor="start" font-size="14px" style="fill-opacity: 1; font-family: sans-serif; font-weight: normal; fill: black;">18_HM041421_1_Echinopsis_pachanoi_ribosomal_protein_L16-like__rpl16__gene__partial_sequence__chloroplast</text><text class="triangleText" dy=".35em" font-size="14px" style="fill-opacity: 1e-06; font-family: sans-serif;"></text><path d="M0,0L0,0L0,0L0,0"></path></g><g class="node" transform="translate(370,297.3333435058594)" id="node_1583" style="cursor: crosshair;"><circle class="node" r="4" style="fill: black;"></circle><rect class="node" y="-4px" x="-4px" width="0px" height="0px" style="stroke-width: 2px; stroke: black;"></rect><text x="13" dy=".3em" dx="-.3em" text-anchor="start" font-size="14px" style="fill-opacity: 1; font-family: sans-serif; font-weight: normal; fill: black;">21_JQ779756_1_Echinopsis_pachanoi_voucher_B_O_Schlumpberger_x78__M__ribosomal_protein_L16__rpl16__gene__intron__chloroplast</text><text class="triangleText" dy=".35em" font-size="14px" style="fill-opacity: 1e-06; font-family: sans-serif;"></text><path d="M0,0L0,0L0,0L0,0"></path></g><g class="node" transform="translate(370,280.3428649902344)" id="node_4933" style="cursor: crosshair;"><circle class="node" r="4" style="fill: black;"></circle><rect class="node" y="-4px" x="-4px" width="0px" height="0px" style="stroke-width: 2px; stroke: black;"></rect><text x="13" dy=".3em" dx="-.3em" text-anchor="start" font-size="14px" style="fill-opacity: 1; font-family: sans-serif; font-weight: normal; fill: black;">10_JQ779755_1_Echinopsis_lageniformis_voucher_B_O_Schlumpberger_x39__M__ribosomal_protein_L16__rpl16__gene__intron__chloroplast</text><text class="triangleText" dy=".35em" font-size="14px" style="fill-opacity: 1e-06; font-family: sans-serif;"></text><path d="M0,0L0,0L0,0L0,0"></path></g><g class="node" transform="translate(370,288.8381042480469)" id="node_8096" style="cursor: crosshair;"><circle class="node" r="4" style="fill: black;"></circle><rect class="node" y="-4px" x="-4px" width="0px" height="0px" style="stroke-width: 2px; stroke: black;"></rect><text x="-13" dy="-.3em" dx=".3em" text-anchor="end" font-size="14px" style="fill-opacity: 1; font-family: sans-serif; font-weight: normal;"></text><text class="triangleText" dy=".35em" font-size="14px" style="fill-opacity: 1e-06; font-family: sans-serif;" x="0"></text><path d="M0,0L0,0L0,0L0,0"></path></g><g class="node" transform="translate(370,301.5809631347656)" id="node_4316" style="cursor: crosshair;"><circle class="node" r="4" style="fill: black;"></circle><rect class="node" y="-4px" x="-4px" width="0px" height="0px" style="stroke-width: 2px; stroke: black;"></rect><text x="-13" dy="-.3em" dx=".3em" text-anchor="end" font-size="14px" style="fill-opacity: 1; font-family: sans-serif; font-weight: normal;"></text><text class="triangleText" dy=".35em" font-size="14px" style="fill-opacity: 1e-06; font-family: sans-serif;" x="0"></text><path d="M0,0L0,0L0,0L0,0"></path></g><g class="node" transform="translate(240.88876342773438,316.4476318359375)" id="node_7273" style="cursor: crosshair;"><circle class="node" r="4" style="fill: black;"></circle><rect class="node" y="-4px" x="-4px" width="0px" height="0px" style="stroke-width: 2px; stroke: black;"></rect><text x="-13" dy="-.3em" dx=".3em" text-anchor="end" font-size="14px" style="fill-opacity: 1; font-family: sans-serif; font-weight: normal;"></text><text class="triangleText" dy=".35em" font-size="14px" style="fill-opacity: 1e-06; font-family: sans-serif;" x="0"></text><path d="M0,0L0,0L0,0L0,0"></path></g><g class="node" transform="translate(284.0085144042969,263.3523864746094)" id="node_3942" style="cursor: crosshair;"><circle class="node" r="4" style="fill: black;"></circle><rect class="node" y="-4px" x="-4px" width="0px" height="0px" style="stroke-width: 2px; stroke: black;"></rect><text x="13" dy=".3em" dx="-.3em" text-anchor="start" font-size="14px" style="fill-opacity: 1; font-family: sans-serif; font-weight: normal; fill: black;">19_JN166917_1_Echinopsis_pachanoi_voucher_A_R__Franck_2598__USF__rpl16_gene__intron__plastid</text><text class="triangleText" dy=".35em" font-size="14px" style="fill-opacity: 1e-06; font-family: sans-serif;"></text><path d="M0,0L0,0L0,0L0,0"></path></g><g class="node" transform="translate(284.0085144042969,246.36192321777344)" id="node_6286" style="cursor: crosshair;"><circle class="node" r="4" style="fill: black;"></circle><rect class="node" y="-4px" x="-4px" width="0px" height="0px" style="stroke-width: 2px; stroke: black;"></rect><text x="13" dy=".3em" dx="-.3em" text-anchor="start" font-size="14px" style="fill-opacity: 1; font-family: sans-serif; font-weight: normal; fill: black;">9_JN166915_1_Echinopsis_lageniformis_voucher_A_R__Franck_2635__USF__rpl16_gene__intron__plastid</text><text class="triangleText" dy=".35em" font-size="14px" style="fill-opacity: 1e-06; font-family: sans-serif;"></text><path d="M0,0L0,0L0,0L0,0"></path></g><g class="node" transform="translate(284.0085144042969,254.85716247558594)" id="node_3465" style="cursor: crosshair;"><circle class="node" r="4" style="fill: black;"></circle><rect class="node" y="-4px" x="-4px" width="0px" height="0px" style="stroke-width: 2px; stroke: black;"></rect><text x="-13" dy="-.3em" dx=".3em" text-anchor="end" font-size="14px" style="fill-opacity: 1; font-family: sans-serif; font-weight: normal;"></text><text class="triangleText" dy=".35em" font-size="14px" style="fill-opacity: 1e-06; font-family: sans-serif;" x="0"></text><path d="M0,0L0,0L0,0L0,0"></path></g><g class="node" transform="translate(178.4822540283203,285.65240478515625)" id="node_4409" style="cursor: crosshair;"><circle class="node" r="4" style="fill: black;"></circle><rect class="node" y="-4px" x="-4px" width="0px" height="0px" style="stroke-width: 2px; stroke: black;"></rect><text x="-13" dy="-.3em" dx=".3em" text-anchor="end" font-size="14px" style="fill-opacity: 1; font-family: sans-serif; font-weight: normal;"></text><text class="triangleText" dy=".35em" font-size="14px" style="fill-opacity: 1e-06; font-family: sans-serif;" x="0"></text><path d="M0,0L0,0L0,0L0,0"></path></g><g class="node" transform="translate(169.7480926513672,316.97857666015625)" id="node_9386" style="cursor: crosshair;"><circle class="node" r="4" style="fill: black;"></circle><rect class="node" y="-4px" x="-4px" width="0px" height="0px" style="stroke-width: 2px; stroke: black;"></rect><text x="-13" dy="-.3em" dx=".3em" text-anchor="end" font-size="14px" style="fill-opacity: 1; font-family: sans-serif; font-weight: normal;"></text><text class="triangleText" dy=".35em" font-size="14px" style="fill-opacity: 1e-06; font-family: sans-serif;" x="0"></text><path d="M0,0L0,0L0,0L0,0"></path></g><g class="node" transform="translate(263.4267578125,229.37144470214844)" id="node_2437" style="cursor: crosshair;"><circle class="node" r="4" style="fill: black;"></circle><rect class="node" y="-4px" x="-4px" width="0px" height="0px" style="stroke-width: 2px; stroke: black;"></rect><text x="13" dy=".3em" dx="-.3em" text-anchor="start" font-size="14px" style="fill-opacity: 1; font-family: sans-serif; font-weight: normal; fill: black;">16_JQ779450_1_Echinopsis_pachanoi_voucher_B_O_Schlumpberger_x78__M__trnS_GCU_-trnG_UUC__intergenic_spacer__partial_sequence__chloroplast</text><text class="triangleText" dy=".35em" font-size="14px" style="fill-opacity: 1e-06; font-family: sans-serif;"></text><path d="M0,0L0,0L0,0L0,0"></path></g><g class="node" transform="translate(263.4267578125,212.38096618652344)" id="node_4303" style="cursor: crosshair;"><circle class="node" r="4" style="fill: black;"></circle><rect class="node" y="-4px" x="-4px" width="0px" height="0px" style="stroke-width: 2px; stroke: black;"></rect><text x="13" dy=".3em" dx="-.3em" text-anchor="start" font-size="14px" style="fill-opacity: 1; font-family: sans-serif; font-weight: normal; fill: black;">7_JQ779449_1_Echinopsis_lageniformis_voucher_B_O_Schlumpberger_x39__M__trnS_GCU_-trnG_UUC__intergenic_spacer__partial_sequence__chloroplast</text><text class="triangleText" dy=".35em" font-size="14px" style="fill-opacity: 1e-06; font-family: sans-serif;"></text><path d="M0,0L0,0L0,0L0,0"></path></g><g class="node" transform="translate(263.4267578125,220.87620544433594)" id="node_9542" style="cursor: crosshair;"><circle class="node" r="4" style="fill: black;"></circle><rect class="node" y="-4px" x="-4px" width="0px" height="0px" style="stroke-width: 2px; stroke: black;"></rect><text x="-13" dy="-.3em" dx=".3em" text-anchor="end" font-size="14px" style="fill-opacity: 1; font-family: sans-serif; font-weight: normal;"></text><text class="triangleText" dy=".35em" font-size="14px" style="fill-opacity: 1e-06; font-family: sans-serif;" x="0"></text><path d="M0,0L0,0L0,0L0,0"></path></g><g class="node" transform="translate(144.3721923828125,268.9273986816406)" id="node_1192" style="cursor: crosshair;"><circle class="node" r="4" style="fill: black;"></circle><rect class="node" y="-4px" x="-4px" width="0px" height="0px" style="stroke-width: 2px; stroke: black;"></rect><text x="-13" dy="-.3em" dx=".3em" text-anchor="end" font-size="14px" style="fill-opacity: 1; font-family: sans-serif; font-weight: normal;"></text><text class="triangleText" dy=".35em" font-size="14px" style="fill-opacity: 1e-06; font-family: sans-serif;" x="0"></text><path d="M0,0L0,0L0,0L0,0"></path></g><g class="node" transform="translate(245.95843505859375,195.39048767089844)" id="node_9687" style="cursor: crosshair;"><circle class="node" r="4" style="fill: black;"></circle><rect class="node" y="-4px" x="-4px" width="0px" height="0px" style="stroke-width: 2px; stroke: black;"></rect><text x="13" dy=".3em" dx="-.3em" text-anchor="start" font-size="14px" style="fill-opacity: 1; font-family: sans-serif; font-weight: normal; fill: black;">3_Seq3__organism=Echinopsis_lageniformis_f__monstruosa_cristata</text><text class="triangleText" dy=".35em" font-size="14px" style="fill-opacity: 1e-06; font-family: sans-serif;"></text><path d="M0,0L0,0L0,0L0,0"></path></g><g class="node" transform="translate(245.57269287109375,178.40000915527344)" id="node_1645" style="cursor: crosshair;"><circle class="node" r="4" style="fill: black;"></circle><rect class="node" y="-4px" x="-4px" width="0px" height="0px" style="stroke-width: 2px; stroke: black;"></rect><text x="13" dy=".3em" dx="-.3em" text-anchor="start" font-size="14px" style="fill-opacity: 1; font-family: sans-serif; font-weight: normal; fill: black;">2_Seq2__organism=Echinopsis_lageniformis_f__monstruosa_cristata</text><text class="triangleText" dy=".35em" font-size="14px" style="fill-opacity: 1e-06; font-family: sans-serif;"></text><path d="M0,0L0,0L0,0L0,0"></path></g><g class="node" transform="translate(176.30560302734375,186.89524841308594)" id="node_8501" style="cursor: crosshair;"><circle class="node" r="4" style="fill: black;"></circle><rect class="node" y="-4px" x="-4px" width="0px" height="0px" style="stroke-width: 2px; stroke: black;"></rect><text x="-13" dy="-.3em" dx=".3em" text-anchor="end" font-size="14px" style="fill-opacity: 1; font-family: sans-serif; font-weight: normal;"></text><text class="triangleText" dy=".35em" font-size="14px" style="fill-opacity: 1e-06; font-family: sans-serif;" x="0"></text><path d="M0,0L0,0L0,0L0,0"></path></g><g class="node" transform="translate(264.69415283203125,161.40953063964844)" id="node_4337" style="cursor: crosshair;"><circle class="node" r="4" style="fill: black;"></circle><rect class="node" y="-4px" x="-4px" width="0px" height="0px" style="stroke-width: 2px; stroke: black;"></rect><text x="13" dy=".3em" dx="-.3em" text-anchor="start" font-size="14px" style="fill-opacity: 1; font-family: sans-serif; font-weight: normal; fill: black;">1_Seq1__organism=Echinopsis_lageniformis_f__monstruosa_cristata</text><text class="triangleText" dy=".35em" font-size="14px" style="fill-opacity: 1e-06; font-family: sans-serif;"></text><path d="M0,0L0,0L0,0L0,0"></path></g><g class="node" transform="translate(167.0203857421875,174.1523895263672)" id="node_2468" style="cursor: crosshair;"><circle class="node" r="4" style="fill: black;"></circle><rect class="node" y="-4px" x="-4px" width="0px" height="0px" style="stroke-width: 2px; stroke: black;"></rect><text x="-13" dy="-.3em" dx=".3em" text-anchor="end" font-size="14px" style="fill-opacity: 1; font-family: sans-serif; font-weight: normal;"></text><text class="triangleText" dy=".35em" font-size="14px" style="fill-opacity: 1e-06; font-family: sans-serif;" x="0"></text><path d="M0,0L0,0L0,0L0,0"></path></g><g class="node" transform="translate(260.23065185546875,144.41905212402344)" id="node_3409" style="cursor: crosshair;"><circle class="node" r="4" style="fill: black;"></circle><rect class="node" y="-4px" x="-4px" width="0px" height="0px" style="stroke-width: 2px; stroke: black;"></rect><text x="13" dy=".3em" dx="-.3em" text-anchor="start" font-size="14px" style="fill-opacity: 1; font-family: sans-serif; font-weight: normal; fill: black;">5_Seq5__organism=Echinopsis_lageniformis_f__monstruosa_cristata</text><text class="triangleText" dy=".35em" font-size="14px" style="fill-opacity: 1e-06; font-family: sans-serif;"></text><path d="M0,0L0,0L0,0L0,0"></path></g><g class="node" transform="translate(220.11415100097656,127.42858123779297)" id="node_7953" style="cursor: crosshair;"><circle class="node" r="4" style="fill: black;"></circle><rect class="node" y="-4px" x="-4px" width="0px" height="0px" style="stroke-width: 2px; stroke: black;"></rect><text x="13" dy=".3em" dx="-.3em" text-anchor="start" font-size="14px" style="fill-opacity: 1; font-family: sans-serif; font-weight: normal; fill: black;">4_Seq4__organism=Echinopsis_lageniformis_f__monstruosa_cristata</text><text class="triangleText" dy=".35em" font-size="14px" style="fill-opacity: 1e-06; font-family: sans-serif;"></text><path d="M0,0L0,0L0,0L0,0"></path></g><g class="node" transform="translate(177.32504272460938,135.92381286621094)" id="node_2298" style="cursor: crosshair;"><circle class="node" r="4" style="fill: black;"></circle><rect class="node" y="-4px" x="-4px" width="0px" height="0px" style="stroke-width: 2px; stroke: black;"></rect><text x="-13" dy="-.3em" dx=".3em" text-anchor="end" font-size="14px" style="fill-opacity: 1; font-family: sans-serif; font-weight: normal;"></text><text class="triangleText" dy=".35em" font-size="14px" style="fill-opacity: 1e-06; font-family: sans-serif;" x="0"></text><path d="M0,0L0,0L0,0L0,0"></path></g><g class="node" transform="translate(156.77084350585938,155.03810119628906)" id="node_4873" style="cursor: crosshair;"><circle class="node" r="4" style="fill: black;"></circle><rect class="node" y="-4px" x="-4px" width="0px" height="0px" style="stroke-width: 2px; stroke: black;"></rect><text x="-13" dy="-.3em" dx=".3em" text-anchor="end" font-size="14px" style="fill-opacity: 1; font-family: sans-serif; font-weight: normal;"></text><text class="triangleText" dy=".35em" font-size="14px" style="fill-opacity: 1e-06; font-family: sans-serif;" x="0"></text><path d="M0,0L0,0L0,0L0,0"></path></g><g class="node" transform="translate(128.4192657470703,211.9827423095703)" id="node_6118" style="cursor: crosshair;"><circle class="node" r="4" style="fill: black;"></circle><rect class="node" y="-4px" x="-4px" width="0px" height="0px" style="stroke-width: 2px; stroke: black;"></rect><text x="-13" dy="-.3em" dx=".3em" text-anchor="end" font-size="14px" style="fill-opacity: 1; font-family: sans-serif; font-weight: normal;"></text><text class="triangleText" dy=".35em" font-size="14px" style="fill-opacity: 1e-06; font-family: sans-serif;" x="0"></text><path d="M0,0L0,0L0,0L0,0"></path></g><g class="node" transform="translate(201.92945861816406,110.43810272216797)" id="node_9788" style="cursor: crosshair;"><circle class="node" r="4" style="fill: black;"></circle><rect class="node" y="-4px" x="-4px" width="0px" height="0px" style="stroke-width: 2px; stroke: black;"></rect><text x="13" dy=".3em" dx="-.3em" text-anchor="start" font-size="14px" style="fill-opacity: 1; font-family: sans-serif; font-weight: normal; fill: black;">13_HM041687_1_Echinopsis_pachanoi_trnK_gene__partial_sequence__and_maturase_K__matK__gene__complete_cds__chloroplast</text><text class="triangleText" dy=".35em" font-size="14px" style="fill-opacity: 1e-06; font-family: sans-serif;"></text><path d="M0,0L0,0L0,0L0,0"></path></g><g class="node" transform="translate(104.86184692382812,161.21041870117188)" id="node_2179" style="cursor: crosshair;"><circle class="node" r="4" style="fill: black;"></circle><rect class="node" y="-4px" x="-4px" width="0px" height="0px" style="stroke-width: 2px; stroke: black;"></rect><text x="-13" dy="-.3em" dx=".3em" text-anchor="end" font-size="14px" style="fill-opacity: 1; font-family: sans-serif; font-weight: normal;"></text><text class="triangleText" dy=".35em" font-size="14px" style="fill-opacity: 1e-06; font-family: sans-serif;" x="0"></text><path d="M0,0L0,0L0,0L0,0"></path></g><g class="node" transform="translate(252.763916015625,93.44762420654297)" id="node_6147" style="cursor: crosshair;"><circle class="node" r="4" style="fill: black;"></circle><rect class="node" y="-4px" x="-4px" width="0px" height="0px" style="stroke-width: 2px; stroke: black;"></rect><text x="13" dy=".3em" dx="-.3em" text-anchor="start" font-size="14px" style="fill-opacity: 1; font-family: sans-serif; font-weight: normal; fill: black;">17_HM041267_1_Echinopsis_pachanoi_trnL-trnF_intergenic_spacer__partial_sequence__chloroplast</text><text class="triangleText" dy=".35em" font-size="14px" style="fill-opacity: 1e-06; font-family: sans-serif;"></text><path d="M0,0L0,0L0,0L0,0"></path></g><g class="node" transform="translate(252.763916015625,76.45714569091797)" id="node_3730" style="cursor: crosshair;"><circle class="node" r="4" style="fill: black;"></circle><rect class="node" y="-4px" x="-4px" width="0px" height="0px" style="stroke-width: 2px; stroke: black;"></rect><text x="13" dy=".3em" dx="-.3em" text-anchor="start" font-size="14px" style="fill-opacity: 1; font-family: sans-serif; font-weight: normal; fill: black;">15_JQ779612_1_Echinopsis_pachanoi_voucher_B_O_Schlumpberger_x78__M__tRNA-Leu__trnL__gene__partial_sequence__trnL-trnF_intergenic_spacer__complete_sequence__and_tRNA-Phe__trnF_</text><text class="triangleText" dy=".35em" font-size="14px" style="fill-opacity: 1e-06; font-family: sans-serif;"></text><path d="M0,0L0,0L0,0L0,0"></path></g><g class="node" transform="translate(252.763916015625,59.466670989990234)" id="node_6845" style="cursor: crosshair;"><circle class="node" r="4" style="fill: black;"></circle><rect class="node" y="-4px" x="-4px" width="0px" height="0px" style="stroke-width: 2px; stroke: black;"></rect><text x="13" dy=".3em" dx="-.3em" text-anchor="start" font-size="14px" style="fill-opacity: 1; font-family: sans-serif; font-weight: normal; fill: black;">6_JQ779611_1_Echinopsis_lageniformis_voucher_B_O_Schlumpberger_x39__M__tRNA-Leu__trnL__gene__partial_sequence__trnL-trnF_intergenic_spacer__complete_sequence__and_tRNA-Phe__t</text><text class="triangleText" dy=".35em" font-size="14px" style="fill-opacity: 1e-06; font-family: sans-serif;"></text><path d="M0,0L0,0L0,0L0,0"></path></g><g class="node" transform="translate(252.763916015625,67.96190643310547)" id="node_3210" style="cursor: crosshair;"><circle class="node" r="4" style="fill: black;"></circle><rect class="node" y="-4px" x="-4px" width="0px" height="0px" style="stroke-width: 2px; stroke: black;"></rect><text x="-13" dy="-.3em" dx=".3em" text-anchor="end" font-size="14px" style="fill-opacity: 1; font-family: sans-serif; font-weight: normal;"></text><text class="triangleText" dy=".35em" font-size="14px" style="fill-opacity: 1e-06; font-family: sans-serif;" x="0"></text><path d="M0,0L0,0L0,0L0,0"></path></g><g class="node" transform="translate(252.763916015625,80.70476531982422)" id="node_2508" style="cursor: crosshair;"><circle class="node" r="4" style="fill: black;"></circle><rect class="node" y="-4px" x="-4px" width="0px" height="0px" style="stroke-width: 2px; stroke: black;"></rect><text x="-13" dy="-.3em" dx=".3em" text-anchor="end" font-size="14px" style="fill-opacity: 1; font-family: sans-serif; font-weight: normal;"></text><text class="triangleText" dy=".35em" font-size="14px" style="fill-opacity: 1e-06; font-family: sans-serif;" x="0"></text><path d="M0,0L0,0L0,0L0,0"></path></g><g class="node" transform="translate(88.82626342773438,120.95759582519531)" id="node_1546" style="cursor: crosshair;"><circle class="node" r="4" style="fill: black;"></circle><rect class="node" y="-4px" x="-4px" width="0px" height="0px" style="stroke-width: 2px; stroke: black;"></rect><text x="-13" dy="-.3em" dx=".3em" text-anchor="end" font-size="14px" style="fill-opacity: 1; font-family: sans-serif; font-weight: normal;"></text><text class="triangleText" dy=".35em" font-size="14px" style="fill-opacity: 1e-06; font-family: sans-serif;" x="0"></text><path d="M0,0L0,0L0,0L0,0"></path></g><g class="node" transform="translate(126.02220153808594,42.476192474365234)" id="node_1340" style="cursor: crosshair;"><circle class="node" r="4" style="fill: black;"></circle><rect class="node" y="-4px" x="-4px" width="0px" height="0px" style="stroke-width: 2px; stroke: black;"></rect><text x="13" dy=".3em" dx="-.3em" text-anchor="start" font-size="14px" style="fill-opacity: 1; font-family: sans-serif; font-weight: normal; fill: black;">14_KR135837_1_UNVERIFIED__Echinopsis_pachanoi_GAPC-like_gene__complete_sequence</text><text class="triangleText" dy=".35em" font-size="14px" style="fill-opacity: 1e-06; font-family: sans-serif;"></text><path d="M0,0L0,0L0,0L0,0"></path></g><g class="node" transform="translate(29.2301025390625,81.7168960571289)" id="node_1986" style="cursor: crosshair;"><circle class="node" r="4" style="fill: black;"></circle><rect class="node" y="-4px" x="-4px" width="0px" height="0px" style="stroke-width: 2px; stroke: black;"></rect><text x="-13" dy="-.3em" dx=".3em" text-anchor="end" font-size="14px" style="fill-opacity: 1; font-family: sans-serif; font-weight: normal;"></text><text class="triangleText" dy=".35em" font-size="14px" style="fill-opacity: 1e-06; font-family: sans-serif;" x="0"></text><path d="M0,0L0,0L0,0L0,0"></path></g><g class="node" transform="translate(254.55482482910156,25.485715866088867)" id="node_9443" style="cursor: crosshair;"><circle class="node" r="4" style="fill: black;"></circle><rect class="node" y="-4px" x="-4px" width="0px" height="0px" style="stroke-width: 2px; stroke: black;"></rect><text x="13" dy=".3em" dx="-.3em" text-anchor="start" font-size="14px" style="fill-opacity: 1; font-family: sans-serif; font-weight: normal; fill: black;">20_JN166821_1_Echinopsis_pachanoi_voucher_A_R__Franck_2598__USF__impaired_sucrose_induction_protein__ISI__gene__partial_cds</text><text class="triangleText" dy=".35em" font-size="14px" style="fill-opacity: 1e-06; font-family: sans-serif;"></text><path d="M0,0L0,0L0,0L0,0"></path></g><g class="node" transform="translate(264.69415283203125,8.495238304138184)" id="node_3951" style="cursor: crosshair;"><circle class="node" r="4" style="fill: black;"></circle><rect class="node" y="-4px" x="-4px" width="0px" height="0px" style="stroke-width: 2px; stroke: black;"></rect><text x="13" dy=".3em" dx="-.3em" text-anchor="start" font-size="14px" style="fill-opacity: 1; font-family: sans-serif; font-weight: normal; fill: black;">8_JN166823_1_Echinopsis_lageniformis_voucher_A_R__Franck_2635__USF__impaired_sucrose_induction_protein__ISI__gene__partial_cds</text><text class="triangleText" dy=".35em" font-size="14px" style="fill-opacity: 1e-06; font-family: sans-serif;"></text><path d="M0,0L0,0L0,0L0,0"></path></g><g class="node" transform="translate(20,49.35368728637695)" id="node_6650" style="cursor: crosshair;"><circle class="node" r="4" style="fill: black;"></circle><rect class="node" y="-4px" x="-4px" width="0px" height="0px" style="stroke-width: 2px; stroke: black;"></rect><text x="-13" dy="-.3em" dx=".3em" text-anchor="end" font-size="14px" style="fill-opacity: 1; font-family: sans-serif; font-weight: normal;"></text><text class="triangleText" dy=".35em" font-size="14px" style="fill-opacity: 1e-06; font-family: sans-serif;" x="0"></text><path d="M0,0L0,0L0,0L0,0"></path></g><g class="node" transform="translate(254.55482482910156,16.990476608276367)" id="node_4088" style="cursor: crosshair;"><circle class="node" r="4" style="fill: black;"></circle><rect class="node" y="-4px" x="-4px" width="0px" height="0px" style="stroke-width: 2px; stroke: black;"></rect><text x="-13" dy="-.3em" dx=".3em" text-anchor="end" font-size="14px" style="fill-opacity: 1; font-family: sans-serif; font-weight: normal;"></text><text class="triangleText" dy=".35em" font-size="14px" style="fill-opacity: 1e-06; font-family: sans-serif;" x="0"></text><path d="M0,0L0,0L0,0L0,0"></path></g></g></svg>