<?xml version="1.0" encoding="utf-8" standalone="no"?>
<!DOCTYPE svg PUBLIC "-//W3C//DTD SVG 1.1//EN"
  "http://www.w3.org/Graphics/SVG/1.1/DTD/svg11.dtd">
<svg xmlns:xlink="http://www.w3.org/1999/xlink" width="576pt" height="576pt" viewBox="0 0 576 576" xmlns="http://www.w3.org/2000/svg" version="1.1">
 <metadata>
  <rdf:RDF xmlns:dc="http://purl.org/dc/elements/1.1/" xmlns:cc="http://creativecommons.org/ns#" xmlns:rdf="http://www.w3.org/1999/02/22-rdf-syntax-ns#">
   <cc:Work>
    <dc:type rdf:resource="http://purl.org/dc/dcmitype/StillImage"/>
    <dc:date>2025-09-04T09:20:17.445579</dc:date>
    <dc:format>image/svg+xml</dc:format>
    <dc:creator>
     <cc:Agent>
      <dc:title>Matplotlib v3.10.5, https://matplotlib.org/</dc:title>
     </cc:Agent>
    </dc:creator>
   </cc:Work>
  </rdf:RDF>
 </metadata>
 <defs>
  <style type="text/css">*{stroke-linejoin: round; stroke-linecap: butt}</style>
 </defs>
 <g id="figure_1">
  <g id="patch_1">
   <path d="M 0 576 
L 576 576 
L 576 0 
L 0 0 
z
" style="fill: #ffffff"/>
  </g>
  <g id="axes_1">
   <g id="patch_2">
    <path d="M 244.228385 371.046679 
C 233.01552 360.91855 224.051311 348.549678 217.916455 334.741314 
C 211.7816 320.932951 208.611493 305.989843 208.611493 290.88 
C 208.611493 275.770157 211.7816 260.827049 217.916455 247.018686 
C 224.051311 233.210322 233.01552 220.84145 244.228385 210.713321 
C 229.812727 201.385879 213.144569 196.11723 195.986875 195.464628 
C 178.82918 194.812027 161.808968 198.799323 146.726437 207.004786 
C 131.643906 215.210249 119.05024 227.334015 110.277449 242.093775 
C 101.504657 256.853534 96.873338 273.709899 96.873338 290.88 
C 96.873338 308.050101 101.504657 324.906466 110.277449 339.666225 
C 119.05024 354.425985 131.643906 366.549751 146.726437 374.755214 
C 161.808968 382.960677 178.82918 386.947973 195.986875 386.295372 
C 213.144569 385.64277 229.812727 380.374121 244.228385 371.046679 
" clip-path="url(#pb0a72f1710)" style="fill: #a020f0; opacity: 0.6; stroke: #000000; stroke-width: 2; stroke-linejoin: miter"/>
   </g>
   <g id="patch_3">
    <path d="M 361.050957 192.402896 
C 380.006659 200.951545 396.096939 214.794217 407.380464 232.260759 
C 418.663989 249.727302 424.667948 270.085817 424.667948 290.88 
C 424.667948 311.674183 418.663989 332.032698 407.380464 349.499241 
C 396.096939 366.965783 380.006659 380.808455 361.050957 389.357104 
C 376.409257 393.979061 392.637954 394.944688 408.435973 392.17657 
C 424.233991 389.408451 439.167556 382.982592 452.039426 373.414163 
C 464.911295 363.845733 475.368039 351.397459 482.571327 337.067333 
C 489.774615 322.737207 493.526662 306.918699 493.526662 290.88 
C 493.526662 274.841301 489.774615 259.022793 482.571327 244.692667 
C 475.368039 230.362541 464.911295 217.914267 452.039426 208.345837 
C 439.167556 198.777408 424.233991 192.351549 408.435973 189.58343 
C 392.637954 186.815312 376.409257 187.780939 361.050957 192.402896 
" clip-path="url(#pb0a72f1710)" style="fill: #00cc66; opacity: 0.6; stroke: #000000; stroke-width: 2; stroke-linejoin: miter"/>
   </g>
   <g id="patch_4">
    <path d="M 244.228385 371.046679 
C 259.811634 385.122401 279.166067 394.353605 299.911921 397.605249 
C 320.657774 400.856892 341.908425 397.99001 361.050957 389.357104 
C 339.890577 382.989057 321.335894 369.967196 308.15269 352.232573 
C 294.969486 334.497951 287.847044 312.977821 287.847044 290.88 
C 287.847044 268.782179 294.969486 247.262049 308.15269 229.527427 
C 321.335894 211.792804 339.890577 198.770943 361.050957 192.402896 
C 341.908425 183.76999 320.657774 180.903108 299.911921 184.154751 
C 279.166067 187.406395 259.811634 196.637599 244.228385 210.713321 
C 257.611318 219.372552 268.615287 231.246702 276.232918 245.248734 
C 283.850549 259.250765 287.842069 274.93995 287.842069 290.88 
C 287.842069 306.82005 283.850549 322.509235 276.232918 336.511266 
C 268.615287 350.513298 257.611318 362.387448 244.228385 371.046679 
" clip-path="url(#pb0a72f1710)" style="fill: #ff3333; opacity: 0.6; stroke: #000000; stroke-width: 2; stroke-linejoin: miter"/>
   </g>
   <g id="patch_5">
    <path d="M 244.228385 371.046679 
C 257.611318 362.387448 268.615287 350.513298 276.232918 336.511266 
C 283.850549 322.509235 287.842069 306.82005 287.842069 290.88 
C 287.842069 274.93995 283.850549 259.250765 276.232918 245.248734 
C 268.615287 231.246702 257.611318 219.372552 244.228385 210.713321 
C 233.01552 220.84145 224.051311 233.210322 217.916455 247.018686 
C 211.7816 260.827049 208.611493 275.770157 208.611493 290.88 
C 208.611493 305.989843 211.7816 320.932951 217.916455 334.741314 
C 224.051311 348.549678 233.01552 360.91855 244.228385 371.046679 
" clip-path="url(#pb0a72f1710)" style="fill: #ff99cc; opacity: 0.6; stroke: #000000; stroke-width: 2; stroke-linejoin: miter"/>
   </g>
   <g id="patch_6">
    <path d="M 361.050957 192.402896 
C 339.890577 198.770943 321.335894 211.792804 308.15269 229.527427 
C 294.969486 247.262049 287.847044 268.782179 287.847044 290.88 
C 287.847044 312.977821 294.969486 334.497951 308.15269 352.232573 
C 321.335894 369.967196 339.890577 382.989057 361.050957 389.357104 
C 380.006659 380.808455 396.096939 366.965783 407.380464 349.499241 
C 418.663989 332.032698 424.667948 311.674183 424.667948 290.88 
C 424.667948 270.085817 418.663989 249.727302 407.380464 232.260759 
C 396.096939 214.794217 380.006659 200.951545 361.050957 192.402896 
" clip-path="url(#pb0a72f1710)" style="fill: #99ff99; opacity: 0.6; stroke: #000000; stroke-width: 2; stroke-linejoin: miter"/>
   </g>
   <g id="text_1">
    <!-- 14 -->
    <g transform="translate(143.001478 294.743125) scale(0.14 -0.14)">
     <defs>
      <path id="DejaVuSans-Bold-31" d="M 750 831 
L 1813 831 
L 1813 3847 
L 722 3622 
L 722 4441 
L 1806 4666 
L 2950 4666 
L 2950 831 
L 4013 831 
L 4013 0 
L 750 0 
L 750 831 
z
" transform="scale(0.015625)"/>
      <path id="DejaVuSans-Bold-34" d="M 2356 3675 
L 1038 1722 
L 2356 1722 
L 2356 3675 
z
M 2156 4666 
L 3494 4666 
L 3494 1722 
L 4159 1722 
L 4159 850 
L 3494 850 
L 3494 0 
L 2356 0 
L 2356 850 
L 288 850 
L 288 1881 
L 2156 4666 
z
" transform="scale(0.015625)"/>
     </defs>
     <use xlink:href="#DejaVuSans-Bold-31"/>
     <use xlink:href="#DejaVuSans-Bold-34" transform="translate(69.580078 0)"/>
    </g>
   </g>
   <g id="text_2">
    <!-- 8 -->
    <g transform="translate(454.226836 294.743125) scale(0.14 -0.14)">
     <defs>
      <path id="DejaVuSans-Bold-38" d="M 2228 2088 
Q 1891 2088 1709 1903 
Q 1528 1719 1528 1375 
Q 1528 1031 1709 848 
Q 1891 666 2228 666 
Q 2563 666 2741 848 
Q 2919 1031 2919 1375 
Q 2919 1722 2741 1905 
Q 2563 2088 2228 2088 
z
M 1350 2484 
Q 925 2613 709 2878 
Q 494 3144 494 3541 
Q 494 4131 934 4440 
Q 1375 4750 2228 4750 
Q 3075 4750 3515 4442 
Q 3956 4134 3956 3541 
Q 3956 3144 3739 2878 
Q 3522 2613 3097 2484 
Q 3572 2353 3814 2058 
Q 4056 1763 4056 1313 
Q 4056 619 3595 264 
Q 3134 -91 2228 -91 
Q 1319 -91 855 264 
Q 391 619 391 1313 
Q 391 1763 633 2058 
Q 875 2353 1350 2484 
z
M 1631 3419 
Q 1631 3141 1786 2991 
Q 1941 2841 2228 2841 
Q 2509 2841 2662 2991 
Q 2816 3141 2816 3419 
Q 2816 3697 2662 3845 
Q 2509 3994 2228 3994 
Q 1941 3994 1786 3844 
Q 1631 3694 1631 3419 
z
" transform="scale(0.015625)"/>
     </defs>
     <use xlink:href="#DejaVuSans-Bold-38"/>
    </g>
   </g>
   <g id="text_3">
    <!-- 11 -->
    <g transform="translate(238.485843 294.743125) scale(0.14 -0.14)">
     <use xlink:href="#DejaVuSans-Bold-31"/>
     <use xlink:href="#DejaVuSans-Bold-31" transform="translate(69.580078 0)"/>
    </g>
   </g>
   <g id="text_4">
    <!-- 21 -->
    <g transform="translate(346.516558 294.743125) scale(0.14 -0.14)">
     <defs>
      <path id="DejaVuSans-Bold-32" d="M 1844 884 
L 3897 884 
L 3897 0 
L 506 0 
L 506 884 
L 2209 2388 
Q 2438 2594 2547 2791 
Q 2656 2988 2656 3200 
Q 2656 3528 2436 3728 
Q 2216 3928 1850 3928 
Q 1569 3928 1234 3808 
Q 900 3688 519 3450 
L 519 4475 
Q 925 4609 1322 4679 
Q 1719 4750 2100 4750 
Q 2938 4750 3402 4381 
Q 3866 4013 3866 3353 
Q 3866 2972 3669 2642 
Q 3472 2313 2841 1759 
L 1844 884 
z
" transform="scale(0.015625)"/>
     </defs>
     <use xlink:href="#DejaVuSans-Bold-32"/>
     <use xlink:href="#DejaVuSans-Bold-31" transform="translate(69.580078 0)"/>
    </g>
   </g>
   <g id="text_5">
    <!-- Urban -->
    <g transform="translate(132.386985 419.109817) scale(0.14 -0.14)">
     <defs>
      <path id="DejaVuSans-Bold-55" d="M 588 4666 
L 1791 4666 
L 1791 1869 
Q 1791 1291 1980 1042 
Q 2169 794 2597 794 
Q 3028 794 3217 1042 
Q 3406 1291 3406 1869 
L 3406 4666 
L 4609 4666 
L 4609 1869 
Q 4609 878 4112 393 
Q 3616 -91 2597 -91 
Q 1581 -91 1084 393 
Q 588 878 588 1869 
L 588 4666 
z
" transform="scale(0.015625)"/>
      <path id="DejaVuSans-Bold-72" d="M 3138 2547 
Q 2991 2616 2845 2648 
Q 2700 2681 2553 2681 
Q 2122 2681 1889 2404 
Q 1656 2128 1656 1613 
L 1656 0 
L 538 0 
L 538 3500 
L 1656 3500 
L 1656 2925 
Q 1872 3269 2151 3426 
Q 2431 3584 2822 3584 
Q 2878 3584 2943 3579 
Q 3009 3575 3134 3559 
L 3138 2547 
z
" transform="scale(0.015625)"/>
      <path id="DejaVuSans-Bold-62" d="M 2400 722 
Q 2759 722 2948 984 
Q 3138 1247 3138 1747 
Q 3138 2247 2948 2509 
Q 2759 2772 2400 2772 
Q 2041 2772 1848 2508 
Q 1656 2244 1656 1747 
Q 1656 1250 1848 986 
Q 2041 722 2400 722 
z
M 1656 2988 
Q 1888 3294 2169 3439 
Q 2450 3584 2816 3584 
Q 3463 3584 3878 3070 
Q 4294 2556 4294 1747 
Q 4294 938 3878 423 
Q 3463 -91 2816 -91 
Q 2450 -91 2169 54 
Q 1888 200 1656 506 
L 1656 0 
L 538 0 
L 538 4863 
L 1656 4863 
L 1656 2988 
z
" transform="scale(0.015625)"/>
      <path id="DejaVuSans-Bold-61" d="M 2106 1575 
Q 1756 1575 1579 1456 
Q 1403 1338 1403 1106 
Q 1403 894 1545 773 
Q 1688 653 1941 653 
Q 2256 653 2472 879 
Q 2688 1106 2688 1447 
L 2688 1575 
L 2106 1575 
z
M 3816 1997 
L 3816 0 
L 2688 0 
L 2688 519 
Q 2463 200 2181 54 
Q 1900 -91 1497 -91 
Q 953 -91 614 226 
Q 275 544 275 1050 
Q 275 1666 698 1953 
Q 1122 2241 2028 2241 
L 2688 2241 
L 2688 2328 
Q 2688 2594 2478 2717 
Q 2269 2841 1825 2841 
Q 1466 2841 1156 2769 
Q 847 2697 581 2553 
L 581 3406 
Q 941 3494 1303 3539 
Q 1666 3584 2028 3584 
Q 2975 3584 3395 3211 
Q 3816 2838 3816 1997 
z
" transform="scale(0.015625)"/>
      <path id="DejaVuSans-Bold-6e" d="M 4056 2131 
L 4056 0 
L 2931 0 
L 2931 347 
L 2931 1631 
Q 2931 2084 2911 2256 
Q 2891 2428 2841 2509 
Q 2775 2619 2662 2680 
Q 2550 2741 2406 2741 
Q 2056 2741 1856 2470 
Q 1656 2200 1656 1722 
L 1656 0 
L 538 0 
L 538 3500 
L 1656 3500 
L 1656 2988 
Q 1909 3294 2193 3439 
Q 2478 3584 2822 3584 
Q 3428 3584 3742 3212 
Q 4056 2841 4056 2131 
z
" transform="scale(0.015625)"/>
     </defs>
     <use xlink:href="#DejaVuSans-Bold-55"/>
     <use xlink:href="#DejaVuSans-Bold-72" transform="translate(81.201172 0)"/>
     <use xlink:href="#DejaVuSans-Bold-62" transform="translate(130.517578 0)"/>
     <use xlink:href="#DejaVuSans-Bold-61" transform="translate(202.099609 0)"/>
     <use xlink:href="#DejaVuSans-Bold-6e" transform="translate(269.580078 0)"/>
    </g>
   </g>
   <g id="text_6">
    <!-- Fire-affected -->
    <g transform="translate(254.378422 419.109817) scale(0.14 -0.14)">
     <defs>
      <path id="DejaVuSans-Bold-46" d="M 588 4666 
L 3834 4666 
L 3834 3756 
L 1791 3756 
L 1791 2888 
L 3713 2888 
L 3713 1978 
L 1791 1978 
L 1791 0 
L 588 0 
L 588 4666 
z
" transform="scale(0.015625)"/>
      <path id="DejaVuSans-Bold-69" d="M 538 3500 
L 1656 3500 
L 1656 0 
L 538 0 
L 538 3500 
z
M 538 4863 
L 1656 4863 
L 1656 3950 
L 538 3950 
L 538 4863 
z
" transform="scale(0.015625)"/>
      <path id="DejaVuSans-Bold-65" d="M 4031 1759 
L 4031 1441 
L 1416 1441 
Q 1456 1047 1700 850 
Q 1944 653 2381 653 
Q 2734 653 3104 758 
Q 3475 863 3866 1075 
L 3866 213 
Q 3469 63 3072 -14 
Q 2675 -91 2278 -91 
Q 1328 -91 801 392 
Q 275 875 275 1747 
Q 275 2603 792 3093 
Q 1309 3584 2216 3584 
Q 3041 3584 3536 3087 
Q 4031 2591 4031 1759 
z
M 2881 2131 
Q 2881 2450 2695 2645 
Q 2509 2841 2209 2841 
Q 1884 2841 1681 2658 
Q 1478 2475 1428 2131 
L 2881 2131 
z
" transform="scale(0.015625)"/>
      <path id="DejaVuSans-Bold-2d" d="M 347 2297 
L 2309 2297 
L 2309 1388 
L 347 1388 
L 347 2297 
z
" transform="scale(0.015625)"/>
      <path id="DejaVuSans-Bold-66" d="M 2841 4863 
L 2841 4128 
L 2222 4128 
Q 1984 4128 1890 4042 
Q 1797 3956 1797 3744 
L 1797 3500 
L 2753 3500 
L 2753 2700 
L 1797 2700 
L 1797 0 
L 678 0 
L 678 2700 
L 122 2700 
L 122 3500 
L 678 3500 
L 678 3744 
Q 678 4316 997 4589 
Q 1316 4863 1984 4863 
L 2841 4863 
z
" transform="scale(0.015625)"/>
      <path id="DejaVuSans-Bold-63" d="M 3366 3391 
L 3366 2478 
Q 3138 2634 2908 2709 
Q 2678 2784 2431 2784 
Q 1963 2784 1702 2511 
Q 1441 2238 1441 1747 
Q 1441 1256 1702 982 
Q 1963 709 2431 709 
Q 2694 709 2930 787 
Q 3166 866 3366 1019 
L 3366 103 
Q 3103 6 2833 -42 
Q 2563 -91 2291 -91 
Q 1344 -91 809 395 
Q 275 881 275 1747 
Q 275 2613 809 3098 
Q 1344 3584 2291 3584 
Q 2566 3584 2833 3536 
Q 3100 3488 3366 3391 
z
" transform="scale(0.015625)"/>
      <path id="DejaVuSans-Bold-74" d="M 1759 4494 
L 1759 3500 
L 2913 3500 
L 2913 2700 
L 1759 2700 
L 1759 1216 
Q 1759 972 1856 886 
Q 1953 800 2241 800 
L 2816 800 
L 2816 0 
L 1856 0 
Q 1194 0 917 276 
Q 641 553 641 1216 
L 641 2700 
L 84 2700 
L 84 3500 
L 641 3500 
L 641 4494 
L 1759 4494 
z
" transform="scale(0.015625)"/>
      <path id="DejaVuSans-Bold-64" d="M 2919 2988 
L 2919 4863 
L 4044 4863 
L 4044 0 
L 2919 0 
L 2919 506 
Q 2688 197 2409 53 
Q 2131 -91 1766 -91 
Q 1119 -91 703 423 
Q 288 938 288 1747 
Q 288 2556 703 3070 
Q 1119 3584 1766 3584 
Q 2128 3584 2408 3439 
Q 2688 3294 2919 2988 
z
M 2181 722 
Q 2541 722 2730 984 
Q 2919 1247 2919 1747 
Q 2919 2247 2730 2509 
Q 2541 2772 2181 2772 
Q 1825 2772 1636 2509 
Q 1447 2247 1447 1747 
Q 1447 1247 1636 984 
Q 1825 722 2181 722 
z
" transform="scale(0.015625)"/>
     </defs>
     <use xlink:href="#DejaVuSans-Bold-46"/>
     <use xlink:href="#DejaVuSans-Bold-69" transform="translate(68.310547 0)"/>
     <use xlink:href="#DejaVuSans-Bold-72" transform="translate(102.587891 0)"/>
     <use xlink:href="#DejaVuSans-Bold-65" transform="translate(151.904297 0)"/>
     <use xlink:href="#DejaVuSans-Bold-2d" transform="translate(219.726562 0)"/>
     <use xlink:href="#DejaVuSans-Bold-61" transform="translate(261.230469 0)"/>
     <use xlink:href="#DejaVuSans-Bold-66" transform="translate(328.710938 0)"/>
     <use xlink:href="#DejaVuSans-Bold-66" transform="translate(372.216797 0)"/>
     <use xlink:href="#DejaVuSans-Bold-65" transform="translate(415.722656 0)"/>
     <use xlink:href="#DejaVuSans-Bold-63" transform="translate(483.544922 0)"/>
     <use xlink:href="#DejaVuSans-Bold-74" transform="translate(542.822266 0)"/>
     <use xlink:href="#DejaVuSans-Bold-65" transform="translate(590.625 0)"/>
     <use xlink:href="#DejaVuSans-Bold-64" transform="translate(658.447266 0)"/>
    </g>
   </g>
   <g id="text_7">
    <!-- Recreational -->
    <g transform="translate(404.847827 419.109817) scale(0.14 -0.14)">
     <defs>
      <path id="DejaVuSans-Bold-52" d="M 2297 2597 
Q 2675 2597 2839 2737 
Q 3003 2878 3003 3200 
Q 3003 3519 2839 3656 
Q 2675 3794 2297 3794 
L 1791 3794 
L 1791 2597 
L 2297 2597 
z
M 1791 1766 
L 1791 0 
L 588 0 
L 588 4666 
L 2425 4666 
Q 3347 4666 3776 4356 
Q 4206 4047 4206 3378 
Q 4206 2916 3982 2619 
Q 3759 2322 3309 2181 
Q 3556 2125 3751 1926 
Q 3947 1728 4147 1325 
L 4800 0 
L 3519 0 
L 2950 1159 
Q 2778 1509 2601 1637 
Q 2425 1766 2131 1766 
L 1791 1766 
z
" transform="scale(0.015625)"/>
      <path id="DejaVuSans-Bold-6f" d="M 2203 2784 
Q 1831 2784 1636 2517 
Q 1441 2250 1441 1747 
Q 1441 1244 1636 976 
Q 1831 709 2203 709 
Q 2569 709 2762 976 
Q 2956 1244 2956 1747 
Q 2956 2250 2762 2517 
Q 2569 2784 2203 2784 
z
M 2203 3584 
Q 3106 3584 3614 3096 
Q 4122 2609 4122 1747 
Q 4122 884 3614 396 
Q 3106 -91 2203 -91 
Q 1297 -91 786 396 
Q 275 884 275 1747 
Q 275 2609 786 3096 
Q 1297 3584 2203 3584 
z
" transform="scale(0.015625)"/>
      <path id="DejaVuSans-Bold-6c" d="M 538 4863 
L 1656 4863 
L 1656 0 
L 538 0 
L 538 4863 
z
" transform="scale(0.015625)"/>
     </defs>
     <use xlink:href="#DejaVuSans-Bold-52"/>
     <use xlink:href="#DejaVuSans-Bold-65" transform="translate(77.001953 0)"/>
     <use xlink:href="#DejaVuSans-Bold-63" transform="translate(144.824219 0)"/>
     <use xlink:href="#DejaVuSans-Bold-72" transform="translate(204.101562 0)"/>
     <use xlink:href="#DejaVuSans-Bold-65" transform="translate(253.417969 0)"/>
     <use xlink:href="#DejaVuSans-Bold-61" transform="translate(321.240234 0)"/>
     <use xlink:href="#DejaVuSans-Bold-74" transform="translate(388.720703 0)"/>
     <use xlink:href="#DejaVuSans-Bold-69" transform="translate(436.523438 0)"/>
     <use xlink:href="#DejaVuSans-Bold-6f" transform="translate(470.800781 0)"/>
     <use xlink:href="#DejaVuSans-Bold-6e" transform="translate(539.501953 0)"/>
     <use xlink:href="#DejaVuSans-Bold-61" transform="translate(610.693359 0)"/>
     <use xlink:href="#DejaVuSans-Bold-6c" transform="translate(678.173828 0)"/>
    </g>
   </g>
   <g id="text_8">
    <!-- Venn Diagram of All Soil Samples -->
    <g transform="translate(144.97125 151.978434) scale(0.16 -0.16)">
     <defs>
      <path id="DejaVuSans-Bold-56" d="M 31 4666 
L 1241 4666 
L 2478 1222 
L 3713 4666 
L 4922 4666 
L 3194 0 
L 1759 0 
L 31 4666 
z
" transform="scale(0.015625)"/>
      <path id="DejaVuSans-Bold-20" transform="scale(0.015625)"/>
      <path id="DejaVuSans-Bold-44" d="M 1791 3756 
L 1791 909 
L 2222 909 
Q 2959 909 3348 1275 
Q 3738 1641 3738 2338 
Q 3738 3031 3350 3393 
Q 2963 3756 2222 3756 
L 1791 3756 
z
M 588 4666 
L 1856 4666 
Q 2919 4666 3439 4514 
Q 3959 4363 4331 4000 
Q 4659 3684 4818 3271 
Q 4978 2859 4978 2338 
Q 4978 1809 4818 1395 
Q 4659 981 4331 666 
Q 3956 303 3431 151 
Q 2906 0 1856 0 
L 588 0 
L 588 4666 
z
" transform="scale(0.015625)"/>
      <path id="DejaVuSans-Bold-67" d="M 2919 594 
Q 2688 288 2409 144 
Q 2131 0 1766 0 
Q 1125 0 706 504 
Q 288 1009 288 1791 
Q 288 2575 706 3076 
Q 1125 3578 1766 3578 
Q 2131 3578 2409 3434 
Q 2688 3291 2919 2981 
L 2919 3500 
L 4044 3500 
L 4044 353 
Q 4044 -491 3511 -936 
Q 2978 -1381 1966 -1381 
Q 1638 -1381 1331 -1331 
Q 1025 -1281 716 -1178 
L 716 -306 
Q 1009 -475 1290 -558 
Q 1572 -641 1856 -641 
Q 2406 -641 2662 -400 
Q 2919 -159 2919 353 
L 2919 594 
z
M 2181 2772 
Q 1834 2772 1640 2515 
Q 1447 2259 1447 1791 
Q 1447 1309 1634 1061 
Q 1822 813 2181 813 
Q 2531 813 2725 1069 
Q 2919 1325 2919 1791 
Q 2919 2259 2725 2515 
Q 2531 2772 2181 2772 
z
" transform="scale(0.015625)"/>
      <path id="DejaVuSans-Bold-6d" d="M 3781 2919 
Q 3994 3244 4286 3414 
Q 4578 3584 4928 3584 
Q 5531 3584 5847 3212 
Q 6163 2841 6163 2131 
L 6163 0 
L 5038 0 
L 5038 1825 
Q 5041 1866 5042 1909 
Q 5044 1953 5044 2034 
Q 5044 2406 4934 2573 
Q 4825 2741 4581 2741 
Q 4263 2741 4089 2478 
Q 3916 2216 3909 1719 
L 3909 0 
L 2784 0 
L 2784 1825 
Q 2784 2406 2684 2573 
Q 2584 2741 2328 2741 
Q 2006 2741 1831 2477 
Q 1656 2213 1656 1722 
L 1656 0 
L 531 0 
L 531 3500 
L 1656 3500 
L 1656 2988 
Q 1863 3284 2130 3434 
Q 2397 3584 2719 3584 
Q 3081 3584 3359 3409 
Q 3638 3234 3781 2919 
z
" transform="scale(0.015625)"/>
      <path id="DejaVuSans-Bold-41" d="M 3419 850 
L 1538 850 
L 1241 0 
L 31 0 
L 1759 4666 
L 3194 4666 
L 4922 0 
L 3713 0 
L 3419 850 
z
M 1838 1716 
L 3116 1716 
L 2478 3572 
L 1838 1716 
z
" transform="scale(0.015625)"/>
      <path id="DejaVuSans-Bold-53" d="M 3834 4519 
L 3834 3531 
Q 3450 3703 3084 3790 
Q 2719 3878 2394 3878 
Q 1963 3878 1756 3759 
Q 1550 3641 1550 3391 
Q 1550 3203 1689 3098 
Q 1828 2994 2194 2919 
L 2706 2816 
Q 3484 2659 3812 2340 
Q 4141 2022 4141 1434 
Q 4141 663 3683 286 
Q 3225 -91 2284 -91 
Q 1841 -91 1394 -6 
Q 947 78 500 244 
L 500 1259 
Q 947 1022 1364 901 
Q 1781 781 2169 781 
Q 2563 781 2772 912 
Q 2981 1044 2981 1288 
Q 2981 1506 2839 1625 
Q 2697 1744 2272 1838 
L 1806 1941 
Q 1106 2091 782 2419 
Q 459 2747 459 3303 
Q 459 4000 909 4375 
Q 1359 4750 2203 4750 
Q 2588 4750 2994 4692 
Q 3400 4634 3834 4519 
z
" transform="scale(0.015625)"/>
      <path id="DejaVuSans-Bold-70" d="M 1656 506 
L 1656 -1331 
L 538 -1331 
L 538 3500 
L 1656 3500 
L 1656 2988 
Q 1888 3294 2169 3439 
Q 2450 3584 2816 3584 
Q 3463 3584 3878 3070 
Q 4294 2556 4294 1747 
Q 4294 938 3878 423 
Q 3463 -91 2816 -91 
Q 2450 -91 2169 54 
Q 1888 200 1656 506 
z
M 2400 2772 
Q 2041 2772 1848 2508 
Q 1656 2244 1656 1747 
Q 1656 1250 1848 986 
Q 2041 722 2400 722 
Q 2759 722 2948 984 
Q 3138 1247 3138 1747 
Q 3138 2247 2948 2509 
Q 2759 2772 2400 2772 
z
" transform="scale(0.015625)"/>
      <path id="DejaVuSans-Bold-73" d="M 3272 3391 
L 3272 2541 
Q 2913 2691 2578 2766 
Q 2244 2841 1947 2841 
Q 1628 2841 1473 2761 
Q 1319 2681 1319 2516 
Q 1319 2381 1436 2309 
Q 1553 2238 1856 2203 
L 2053 2175 
Q 2913 2066 3209 1816 
Q 3506 1566 3506 1031 
Q 3506 472 3093 190 
Q 2681 -91 1863 -91 
Q 1516 -91 1145 -36 
Q 775 19 384 128 
L 384 978 
Q 719 816 1070 734 
Q 1422 653 1784 653 
Q 2113 653 2278 743 
Q 2444 834 2444 1013 
Q 2444 1163 2330 1236 
Q 2216 1309 1875 1350 
L 1678 1375 
Q 931 1469 631 1722 
Q 331 1975 331 2491 
Q 331 3047 712 3315 
Q 1094 3584 1881 3584 
Q 2191 3584 2531 3537 
Q 2872 3491 3272 3391 
z
" transform="scale(0.015625)"/>
     </defs>
     <use xlink:href="#DejaVuSans-Bold-56"/>
     <use xlink:href="#DejaVuSans-Bold-65" transform="translate(71.892578 0)"/>
     <use xlink:href="#DejaVuSans-Bold-6e" transform="translate(139.714844 0)"/>
     <use xlink:href="#DejaVuSans-Bold-6e" transform="translate(210.90625 0)"/>
     <use xlink:href="#DejaVuSans-Bold-20" transform="translate(282.097656 0)"/>
     <use xlink:href="#DejaVuSans-Bold-44" transform="translate(316.912109 0)"/>
     <use xlink:href="#DejaVuSans-Bold-69" transform="translate(399.919922 0)"/>
     <use xlink:href="#DejaVuSans-Bold-61" transform="translate(434.197266 0)"/>
     <use xlink:href="#DejaVuSans-Bold-67" transform="translate(501.677734 0)"/>
     <use xlink:href="#DejaVuSans-Bold-72" transform="translate(573.259766 0)"/>
     <use xlink:href="#DejaVuSans-Bold-61" transform="translate(622.576172 0)"/>
     <use xlink:href="#DejaVuSans-Bold-6d" transform="translate(690.056641 0)"/>
     <use xlink:href="#DejaVuSans-Bold-20" transform="translate(794.255859 0)"/>
     <use xlink:href="#DejaVuSans-Bold-6f" transform="translate(829.070312 0)"/>
     <use xlink:href="#DejaVuSans-Bold-66" transform="translate(897.771484 0)"/>
     <use xlink:href="#DejaVuSans-Bold-20" transform="translate(941.277344 0)"/>
     <use xlink:href="#DejaVuSans-Bold-41" transform="translate(976.091797 0)"/>
     <use xlink:href="#DejaVuSans-Bold-6c" transform="translate(1053.484375 0)"/>
     <use xlink:href="#DejaVuSans-Bold-6c" transform="translate(1087.761719 0)"/>
     <use xlink:href="#DejaVuSans-Bold-20" transform="translate(1122.039062 0)"/>
     <use xlink:href="#DejaVuSans-Bold-53" transform="translate(1156.853516 0)"/>
     <use xlink:href="#DejaVuSans-Bold-6f" transform="translate(1228.875 0)"/>
     <use xlink:href="#DejaVuSans-Bold-69" transform="translate(1297.576172 0)"/>
     <use xlink:href="#DejaVuSans-Bold-6c" transform="translate(1331.853516 0)"/>
     <use xlink:href="#DejaVuSans-Bold-20" transform="translate(1366.130859 0)"/>
     <use xlink:href="#DejaVuSans-Bold-53" transform="translate(1400.945312 0)"/>
     <use xlink:href="#DejaVuSans-Bold-61" transform="translate(1472.966797 0)"/>
     <use xlink:href="#DejaVuSans-Bold-6d" transform="translate(1540.447266 0)"/>
     <use xlink:href="#DejaVuSans-Bold-70" transform="translate(1644.646484 0)"/>
     <use xlink:href="#DejaVuSans-Bold-6c" transform="translate(1716.228516 0)"/>
     <use xlink:href="#DejaVuSans-Bold-65" transform="translate(1750.505859 0)"/>
     <use xlink:href="#DejaVuSans-Bold-73" transform="translate(1818.328125 0)"/>
    </g>
   </g>
  </g>
 </g>
 <defs>
  <clipPath id="pb0a72f1710">
   <rect x="72" y="157.978434" width="446.4" height="265.803132"/>
  </clipPath>
 </defs>
</svg>
